<?xml version="1.0" encoding="UTF-8"?>
<svg id="Layer_1" data-name="Layer 1" xmlns="http://www.w3.org/2000/svg" xmlns:svg="http://www.w3.org/2000/svg" xmlns:sodipodi="http://sodipodi.sourceforge.net/DTD/sodipodi-0.dtd" xmlns:rdf="http://www.w3.org/1999/02/22-rdf-syntax-ns#" xmlns:inkscape="http://www.inkscape.org/namespaces/inkscape" xmlns:dc="http://purl.org/dc/elements/1.1/" xmlns:cc="http://creativecommons.org/ns#" version="1.1" viewBox="0 0 88.65 61.28">
  <defs>
    <style>
      .cls-1 {
        font-family: HelveticaNeue-Bold, 'Helvetica Neue';
        font-size: 5px;
        font-weight: 700;
        isolation: isolate;
      }

      .cls-1, .cls-2 {
        fill: #000;
      }

      .cls-2 {
        stroke-width: 0px;
      }
    </style>
  </defs>
  <path class="cls-2" d="M10.2,1.64C5.76,1.64,2.2,5.38,2.2,9.86v41.53c0,4.49,3.56,8.25,8,8.25h68c4.44,0,8-3.76,8-8.25V9.86c0-4.49-3.56-8.22-8-8.22H10.2ZM10.2,5.64h68c.59,0,1.15.14,1.66.38l-33.06,30.59c-1.53,1.41-3.56,1.41-5.09,0L8.57,6.02c.5-.22,1.05-.38,1.62-.38ZM6.26,9.33l23.47,21.69L6.7,53.42c-.3-.6-.5-1.28-.5-2.03V9.86c0-.18.04-.36.06-.53h0ZM82.13,9.36c.02.17.06.33.06.5v41.53c0,.73-.18,1.41-.47,2l-22.97-22.41,23.38-21.62h0ZM55.85,33.67l22.47,21.97H10.2s-.06,0-.09,0l22.56-21.94,6.31,5.84c2.97,2.74,7.56,2.74,10.53,0l6.34-5.88h0Z"/>
  <text class="cls-1" transform="translate(-5.8 95.64)"><tspan x="0" y="0">Created by Barracuda</tspan></text>
  <text class="cls-1" transform="translate(-5.8 100.64)"><tspan x="0" y="0">from the Noun Project</tspan></text>
</svg>