<?xml version="1.0" encoding="UTF-8"?>
<svg id="Layer_1" data-name="Layer 1" xmlns="http://www.w3.org/2000/svg" viewBox="0 0 1917.66 739.6">
  <path d="M371.18,630.29c70.14-38.98,133.01-86.52,185.47-138.36,66.85-66.06,117.37-141.62,146.47-217.26,26.06-67.74,34.93-135.51,22.93-196.49-2.97-15.08-3.78-15.04-1.5.25,19.07,127.56-41.84,257.7-142.22,366.92-112.36,122.26-274.3,218.42-428.7,255.32-41.07,9.82-78.44,15.04-120.71,16.27-37.11,1.07-32.09,17.95,1.66,15.65,39.39-2.68,78.56-8.59,117.05-17.41,76.7-17.57,150.81-46.7,219.55-84.91M505.82,572.83c-2.2.44-2.86-2.9-.67-3.34,33.67-6.75,68.33-23.06,96.37-42.72,1.83-1.28,3.77,1.51,1.94,2.78-28.44,19.93-63.49,36.43-97.64,43.27M672.41,420.24c-2.1.76-3.26-2.43-1.16-3.19,11.2-4.1,22.08-9.2,32.27-15.41,1.91-1.16,3.68,1.74,1.77,2.9-10.39,6.33-21.46,11.53-32.88,15.7M701.65,337.38c-1.75,1.39-3.86-1.27-2.12-2.66,22.81-18.09,38.93-41.72,50.01-68.47.85-2.07,3.99-.77,3.14,1.29-11.3,27.27-27.78,51.39-51.04,69.84M661.87,114.74c-1.01-1.99,2.01-3.53,3.02-1.54,17.56,34.29,17.92,83.77,10.49,120.86-.44,2.2-3.78,1.53-3.34-.67,7.27-36.28,7.01-85.1-10.17-118.65M603.24,268.18c.05-2.23,3.45-2.15,3.4.08-1.13,44.19-16.08,91.54-37.29,130.16-1.08,1.96-4.06.32-2.98-1.64,20.93-38.11,35.76-84.98,36.88-128.6h0ZM438.6,524.95c-1.18,1.9-4.07.1-2.89-1.8,18.6-29.86,30.16-70.32,37.12-104.6.44-2.19,3.76-1.52,3.33.66-7.05,34.72-18.72,75.49-37.56,105.74M364.84,579.54c-1.08,1.96-4.06.33-2.98-1.64,12.37-22.4,19.61-47.23,23.09-72.5.31-2.21,3.68-1.75,3.37.47-3.54,25.65-10.93,50.94-23.48,73.67M325.85,680.83c-2.22-.22-1.89-3.6.33-3.38,19.55,1.99,48.51-1.02,67.63-5.48,2.18-.51,2.95,2.81.77,3.31-19.51,4.55-48.79,7.58-68.73,5.55M677.74,451.67c-14.3,94.93-138.4,177.36-231.67,197.78-13.92,3.05-12.08,1.25.11,3.95,5.23,1.16,9.29,2.66,11.25,4.61,2.92,2.92,3.05,6.19-.61,9.86-11.71,11.71-33.33,23.85-63.51,32.04-24.45,6.64-54.64,10.71-89.86,9.88-7.19-.17-14.38-.26-21.57-.38.98,4.6,5.25,8.58,4.25,14.22-1.12,6.36-8.07,7.75-13.53,7.62-7.15-.17-16.86-2.82-26.44-7.65-10.84-5.46-11.87-5.71-15.54,5.41-2.06,6.25-6.52,8.22-12.47,6.26-2.85-.94-6.19-2.66-10.08-4.66-20.52-10.55-32.29-13.98-54.28-8.93-39.05,8.98-78.77,14.98-118.75,17.7-43.88,2.98-48.64-27.89-2.3-29.23,37.14-1.08,70.96-5.25,106.88-13.2,3.92-.87,7.94-1.56,11.44-3.67,8.91-5.38,9.62-16.35,10.43-28.79.77-11.86,1.62-24.91,8.83-36.79,4.77-7.87,11.64-12.88,16.68-14.66,5.52-1.95,11.97-.08,10.05,6.86-2.05,7.39-3.23,15.29-4.44,22.87-.68,4.29.55,6.42,3.43.14,3.37-6.23,4.93-14.75,7.1-23.65,2.39-9.79,4.88-20.04,9.41-28.87,6.52-12.3,13.71-10.48,16.22,2.59.53,2.78,1.42,5.56,1.82,8.11,1.09,7.74,2.46,6.41,3.81.3.54-2.46,1.3-5.34,2.22-8.69,8.22-29.8,18.97-55.14,36.51-80.71,3.28-4.79,12.99-15.49,16.87-4.96,6.38-14.62,14.81-27.58,23.46-37.7,7.61-8.91,13.46-14.44,17.46-16.61,4.27-2.32,8.88-1.67,9.96,3.69.81,3.97-2.33,18.82-2.41,25.82-.05,5.16-.11,11.05-.78,17.45,29.51-50.19,100.71-130.7,154.17-154,13.11-31.3,33.34-61.14,57.51-84.86,4.23-19.39,11.76-41.53,36.85-78.12,9.43-13.76,23.28-30.62,24.59-1.68,7.74-11.43,12.48-28.01,17.64-46.08,8.06-28.23,17.13-59.99,40.56-83.36,12.55-12.53,19.61-24.79,24.88-33.93,8.33-14.46,12.84-22.29,25.73-14.73,56.09,32.92,73.84,122,51.39,179.46-1.67,4.29-1.52,4.17,1.56.86,1.61-1.72,3.18-3.62,4.74-5.49,4.69-5.66,9.24-11.14,13.7-10.77,6.47.41,7.65,7.4,5.96,27.79-1.98,23.91-7.96,61.1-19.57,95.28-8.35,24.6-19.65,47.69-34.53,63.32-1.51,1.52-2.94,2.74-4.04,3.72-2.84,2.51-2.4,2.99,1.88,3.48,9.51,2.17,23.31,3.35,17.44,16.05-18.21,39.41-45.98,55.15-67.11,67.12-4.45,2.52-9.03,5.08-13.3,7.91M729.73,63.47c1.03,4.62,2.14,9.11,3.09,13.76,12.31,60.59,3.08,131.14-23.36,199.87-29.45,76.55-80.51,152.96-148.04,219.68-52.87,52.24-116.25,100.15-186.93,139.45-58.87,32.72-122.8,59.46-189.94,77.74,10.62,2.37,19.56,6.96,26.65,10.61,3.6,1.85,6.69,3.44,9.1,4.23,1.85.61,3.44-.62,3.87-1.92,5.1-15.47,10.46-16.71,25.07-9.35,8.69,4.38,17.32,6.78,23.54,6.93,3.45.08,7.99.08,6.21-4.43-1.18-2.99-3.86-7.81-3.91-10.72-4.52-.05-8.65-.04-11.59.08-4.47.18-4.73-6.61-.27-6.79,13.05-.56,27.23.08,40.39.39,34.45.81,63.99-3.18,87.92-9.67,25.34-6.88,44.26-16.52,55.93-26.17,5.1-4.21,7.67-4.47.39-6.62-16.94-5-41.19-3.56-59.56-4.8-4.46-.3-4.01-7.09.45-6.79,16.73,1.13,40.58-3.48,56.71-7.29,94.57-22.34,200.33-90.89,223.21-179.89,2.05-7.97,3.45-8.4-3.42-5.33-3.34,1.49-7.03,3.1-10.96,4.75-4.13,1.73-6.77-4.55-2.64-6.28,12.22-5.13,24.5-10.52,36.04-17.06,19.92-11.29,45.8-26.13,63.29-61.91,3.36-6.88-.44-6.83-12.2-9.42-2.46-.54-5.14-.78-7.63-1.21-6.56-.93-7.93-4.4-2.5-8.41,1.83-1.35,5.06-3.74,9.3-8.19,14.12-14.83,24.94-37.04,33.02-60.82,11.4-33.56,17.27-70.13,19.22-93.66.31-3.74.53-6.87.69-9.46.87-14.92.35-13.13-8.34-2.67-1.69,2.04-3.4,4.1-4.98,5.79-10.5,11.25-18.62,6.75-12.87-7.97,21.22-54.3,4.65-139.94-48.49-171.12-6.99-4.11-10.3,1.64-16.41,12.25-5.47,9.49-12.79,22.22-25.97,35.37-22.15,22.1-30.96,52.97-38.8,80.41-6.41,22.42-12.18,42.64-24.17,54.98-.26,11.06-.56,22.11-.98,33.17-.16,4.46-6.95,4.22-6.79-.24.54-14.47,1.12-29.12,1.14-43.58.02-10.72.29-12.21-6.59-2.82-1.62,2.21-3.55,4.97-5.79,8.23-30.07,43.86-34.22,66.27-38.35,88.62-1.35,7.32-2.71,14.62-4.93,22.68-1.19,4.31-7.74,2.5-6.55-1.81,2.1-7.6,3.53-15.26,4.96-23-27.54,29.51-49.82,67.93-59.45,107.23-1.05,4.34-7.65,2.75-6.6-1.6,1.97-8.03,4.42-15.95,7.3-23.72-52.05,26.7-114.55,98.62-144.64,148.37-7.3,12.08-13.93,25.01-20.35,37.61-2.03,3.99-8.1.9-6.07-3.09,4.5-8.82,8.56-15.05,11.14-24.48,3.19-11.67,3.3-22.53,3.4-31.18.15-14.61,7.02-30.97-4.19-18.08-2.32,2.66-5.48,5.69-8.87,9.66-9.2,10.78-18.16,24.94-24.44,40.94-5.4,13.76-8.64,28.48-8.64,43.29,0,4.48-6.82,4.48-6.82,0,0-9.2,1.18-18.26,3.24-27,1.06-5.45,1.4-9.87,2-13.26.99-5.6.33-9.99-5.21-1.91-17.13,24.98-27.55,49.59-35.58,78.69-4.02,14.56-5.86,22.65-11.97,21.98-3.15-.35-6.09-5.61-8.53-21.8-.93-6.15-1.9-5.47-4.09-1.2-4.16,8.1-6.56,17.96-8.85,27.38-2.28,9.36-4.46,18.31-8.22,25.27-5.47,10.66-15.9,13.5-15.47-.35.16-8.18,1.2-15.55,3.32-23.47.54-2,.9-3.66-2.61-1.72-3.49,1.93-7.55,5.51-10.65,10.62-6.33,10.43-7.12,22.62-7.84,33.71-.66,10.17-1.27,19.5-5.51,26.49,149.88-38.4,305.66-132.17,414.56-250.67,99.07-107.8,159.22-236,140.49-361.33l-1.84-13.45c-1.45-10.54,11.46-12.87,13.76-2.5ZM921.18,630.29c70.14-38.98,133.01-86.52,185.47-138.36,66.85-66.06,117.37-141.62,146.47-217.26,26.06-67.74,34.93-135.51,22.93-196.49-2.97-15.08-3.78-15.04-1.5.25,19.07,127.56-41.84,257.7-142.22,366.92-112.36,122.26-274.3,218.42-428.7,255.32-41.07,9.82-78.44,15.04-120.71,16.27-37.11,1.07-32.09,17.95,1.66,15.65,39.39-2.68,78.56-8.59,117.05-17.41,76.7-17.57,150.81-46.7,219.55-84.91M1055.82,572.83c-2.2.44-2.86-2.9-.67-3.34,33.67-6.75,68.33-23.06,96.37-42.72,1.83-1.28,3.77,1.51,1.94,2.78-28.44,19.93-63.49,36.43-97.64,43.27M1222.41,420.24c-2.1.76-3.26-2.43-1.16-3.19,11.2-4.1,22.08-9.2,32.27-15.41,1.91-1.16,3.68,1.74,1.77,2.9-10.39,6.33-21.46,11.53-32.88,15.7M1251.65,337.38c-1.75,1.39-3.86-1.27-2.12-2.66,22.81-18.09,38.93-41.72,50.01-68.47.85-2.07,3.99-.77,3.14,1.29-11.3,27.27-27.78,51.39-51.04,69.84M1211.87,114.74c-1.01-1.99,2.01-3.53,3.02-1.54,17.56,34.29,17.92,83.77,10.49,120.86-.44,2.2-3.78,1.53-3.34-.67,7.27-36.28,7.01-85.1-10.17-118.65M1153.24,268.18c.05-2.23,3.45-2.15,3.4.08-1.13,44.19-16.08,91.54-37.29,130.16-1.08,1.96-4.06.32-2.98-1.64,20.93-38.11,35.76-84.98,36.88-128.6h0ZM988.6,524.95c-1.18,1.9-4.07.1-2.89-1.8,18.6-29.86,30.16-70.32,37.12-104.6.44-2.19,3.76-1.52,3.33.66-7.05,34.72-18.72,75.49-37.56,105.74M914.84,579.54c-1.08,1.96-4.06.33-2.98-1.64,12.37-22.4,19.61-47.23,23.09-72.5.31-2.21,3.68-1.75,3.37.47-3.54,25.65-10.93,50.94-23.48,73.67M875.85,680.83c-2.22-.22-1.89-3.6.33-3.38,19.55,1.99,48.51-1.02,67.63-5.48,2.18-.51,2.95,2.81.77,3.31-19.51,4.55-48.79,7.58-68.73,5.55M1227.74,451.67c-14.3,94.93-138.4,177.36-231.67,197.78-13.92,3.05-12.08,1.25.11,3.95,5.23,1.16,9.29,2.66,11.25,4.61,2.92,2.92,3.05,6.19-.61,9.86-11.71,11.71-33.33,23.85-63.51,32.04-24.45,6.64-54.64,10.71-89.86,9.88-7.19-.17-14.38-.26-21.57-.38.98,4.6,5.25,8.58,4.25,14.22-1.12,6.36-8.07,7.75-13.53,7.62-7.15-.17-16.86-2.82-26.44-7.65-10.84-5.46-11.87-5.71-15.54,5.41-2.06,6.25-6.52,8.22-12.47,6.26-2.85-.94-6.19-2.66-10.08-4.66-20.52-10.55-32.29-13.98-54.28-8.93-39.05,8.98-78.77,14.98-118.75,17.7-43.88,2.98-48.64-27.89-2.3-29.23,37.14-1.08,70.96-5.25,106.88-13.2,3.92-.87,7.94-1.56,11.44-3.67,8.91-5.38,9.62-16.35,10.43-28.79.77-11.86,1.62-24.91,8.83-36.79,4.77-7.87,11.64-12.88,16.68-14.66,5.52-1.95,11.97-.08,10.05,6.86-2.05,7.39-3.23,15.29-4.44,22.87-.68,4.29.55,6.42,3.43.14,3.37-6.23,4.93-14.75,7.1-23.65,2.39-9.79,4.88-20.04,9.41-28.87,6.52-12.3,13.71-10.48,16.22,2.59.53,2.78,1.42,5.56,1.82,8.11,1.09,7.74,2.46,6.41,3.81.3.54-2.46,1.3-5.34,2.22-8.69,8.22-29.8,18.97-55.14,36.51-80.71,3.28-4.79,12.99-15.49,16.87-4.96,6.38-14.62,14.81-27.58,23.46-37.7,7.61-8.91,13.46-14.44,17.46-16.61,4.27-2.32,8.88-1.67,9.96,3.69.81,3.97-2.33,18.82-2.41,25.82-.05,5.16-.11,11.05-.78,17.45,29.51-50.19,100.71-130.7,154.17-154,13.11-31.3,33.34-61.14,57.51-84.86,4.23-19.39,11.76-41.53,36.85-78.12,9.43-13.76,23.28-30.62,24.59-1.68,7.74-11.43,12.48-28.01,17.64-46.08,8.06-28.23,17.13-59.99,40.56-83.36,12.55-12.53,19.61-24.79,24.88-33.93,8.33-14.46,12.84-22.29,25.73-14.73,56.09,32.92,73.84,122,51.39,179.46-1.67,4.29-1.52,4.17,1.56.86,1.61-1.72,3.18-3.62,4.74-5.49,4.69-5.66,9.24-11.14,13.7-10.77,6.47.41,7.65,7.4,5.96,27.79-1.98,23.91-7.96,61.1-19.57,95.28-8.35,24.6-19.65,47.69-34.53,63.32-1.51,1.52-2.94,2.74-4.04,3.72-2.84,2.51-2.4,2.99,1.88,3.48,9.51,2.17,23.31,3.35,17.44,16.05-18.21,39.41-45.98,55.15-67.11,67.12-4.45,2.52-9.03,5.08-13.3,7.91M1279.73,63.47c1.03,4.62,2.14,9.11,3.09,13.76,12.31,60.59,3.08,131.14-23.36,199.87-29.45,76.55-80.51,152.96-148.04,219.68-52.87,52.24-116.25,100.15-186.93,139.45-58.87,32.72-122.8,59.46-189.94,77.74,10.62,2.37,19.56,6.96,26.65,10.61,3.6,1.85,6.69,3.44,9.1,4.23,1.85.61,3.44-.62,3.87-1.92,5.1-15.47,10.46-16.71,25.07-9.35,8.69,4.38,17.32,6.78,23.54,6.93,3.45.08,7.99.08,6.21-4.43-1.18-2.99-3.86-7.81-3.91-10.72-4.52-.05-8.65-.04-11.59.08-4.47.18-4.73-6.61-.27-6.79,13.05-.56,27.23.08,40.39.39,34.45.81,63.99-3.18,87.92-9.67,25.34-6.88,44.26-16.52,55.93-26.17,5.1-4.21,7.67-4.47.39-6.62-16.94-5-41.19-3.56-59.56-4.8-4.46-.3-4.01-7.09.45-6.79,16.73,1.13,40.58-3.48,56.71-7.29,94.57-22.34,200.33-90.89,223.21-179.89,2.05-7.97,3.45-8.4-3.42-5.33-3.34,1.49-7.03,3.1-10.96,4.75-4.13,1.73-6.77-4.55-2.64-6.28,12.22-5.13,24.5-10.52,36.04-17.06,19.92-11.29,45.8-26.13,63.29-61.91,3.36-6.88-.44-6.83-12.2-9.42-2.46-.54-5.14-.78-7.63-1.21-6.56-.93-7.93-4.4-2.5-8.41,1.83-1.35,5.06-3.74,9.3-8.19,14.12-14.83,24.94-37.04,33.02-60.82,11.4-33.56,17.27-70.13,19.22-93.66.31-3.74.53-6.87.69-9.46.87-14.92.35-13.13-8.34-2.67-1.69,2.04-3.4,4.1-4.98,5.79-10.5,11.25-18.62,6.75-12.87-7.97,21.22-54.3,4.65-139.94-48.49-171.12-6.99-4.11-10.3,1.64-16.41,12.25-5.47,9.49-12.79,22.22-25.97,35.37-22.15,22.1-30.96,52.97-38.8,80.41-6.41,22.42-12.18,42.64-24.17,54.98-.26,11.06-.56,22.11-.98,33.17-.16,4.46-6.95,4.22-6.79-.24.54-14.47,1.12-29.12,1.14-43.58.02-10.72.29-12.21-6.59-2.82-1.62,2.21-3.55,4.97-5.79,8.23-30.07,43.86-34.22,66.27-38.35,88.62-1.35,7.32-2.71,14.62-4.93,22.68-1.19,4.31-7.74,2.5-6.55-1.81,2.1-7.6,3.53-15.26,4.96-23-27.54,29.51-49.82,67.93-59.45,107.23-1.05,4.34-7.65,2.75-6.6-1.6,1.97-8.03,4.42-15.95,7.3-23.72-52.05,26.7-114.55,98.62-144.64,148.37-7.3,12.08-13.93,25.01-20.35,37.61-2.03,3.99-8.1.9-6.07-3.09,4.5-8.82,8.56-15.05,11.14-24.48,3.19-11.67,3.3-22.53,3.4-31.18.15-14.61,7.02-30.97-4.19-18.08-2.32,2.66-5.48,5.69-8.87,9.66-9.2,10.78-18.16,24.94-24.44,40.94-5.4,13.76-8.64,28.48-8.64,43.29,0,4.48-6.82,4.48-6.82,0,0-9.2,1.18-18.26,3.24-27,1.06-5.45,1.4-9.87,2-13.26.99-5.6.33-9.99-5.21-1.91-17.13,24.98-27.55,49.59-35.58,78.69-4.02,14.56-5.86,22.65-11.97,21.98-3.15-.35-6.09-5.61-8.53-21.8-.93-6.15-1.9-5.47-4.09-1.2-4.16,8.1-6.56,17.96-8.85,27.38-2.28,9.36-4.46,18.31-8.22,25.27-5.47,10.66-15.9,13.5-15.47-.35.16-8.18,1.2-15.55,3.32-23.47.54-2,.9-3.66-2.61-1.72-3.49,1.93-7.55,5.51-10.65,10.62-6.33,10.43-7.12,22.62-7.84,33.71-.66,10.17-1.27,19.5-5.51,26.49,149.88-38.4,305.66-132.17,414.56-250.67,99.07-107.8,159.22-236,140.49-361.33l-1.84-13.45c-1.45-10.54,11.46-12.87,13.76-2.5ZM1491.18,630.29c70.14-38.98,133.01-86.52,185.47-138.36,66.85-66.06,117.37-141.62,146.47-217.26,26.06-67.74,34.93-135.51,22.93-196.49-2.97-15.08-3.78-15.04-1.5.25,19.07,127.56-41.84,257.7-142.22,366.92-112.36,122.26-274.3,218.42-428.7,255.32-41.07,9.82-78.44,15.04-120.71,16.27-37.11,1.07-32.09,17.95,1.66,15.65,39.39-2.68,78.56-8.59,117.05-17.41,76.7-17.57,150.81-46.7,219.55-84.91M1625.82,572.83c-2.2.44-2.86-2.9-.67-3.34,33.67-6.75,68.33-23.06,96.37-42.72,1.83-1.28,3.77,1.51,1.94,2.78-28.44,19.93-63.49,36.43-97.64,43.27M1792.41,420.24c-2.1.76-3.26-2.43-1.16-3.19,11.2-4.1,22.08-9.2,32.27-15.41,1.91-1.16,3.68,1.74,1.77,2.9-10.39,6.33-21.46,11.53-32.88,15.7M1821.65,337.38c-1.75,1.39-3.86-1.27-2.12-2.66,22.81-18.09,38.93-41.72,50.01-68.47.85-2.07,3.99-.77,3.14,1.29-11.3,27.27-27.78,51.39-51.04,69.84M1781.87,114.74c-1.01-1.99,2.01-3.53,3.02-1.54,17.56,34.29,17.92,83.77,10.49,120.86-.44,2.2-3.78,1.53-3.34-.67,7.27-36.28,7.01-85.1-10.17-118.65M1723.24,268.18c.05-2.23,3.45-2.15,3.4.08-1.13,44.19-16.08,91.54-37.29,130.16-1.08,1.96-4.06.32-2.98-1.64,20.93-38.11,35.76-84.98,36.88-128.6h0ZM1558.6,524.95c-1.18,1.9-4.07.1-2.89-1.8,18.6-29.86,30.16-70.32,37.12-104.6.44-2.19,3.76-1.52,3.33.66-7.05,34.72-18.72,75.49-37.56,105.74M1484.84,579.54c-1.08,1.96-4.06.33-2.98-1.64,12.37-22.4,19.61-47.23,23.09-72.5.31-2.21,3.68-1.75,3.37.47-3.54,25.65-10.93,50.94-23.48,73.67M1445.85,680.83c-2.22-.22-1.89-3.6.33-3.38,19.55,1.99,48.51-1.02,67.63-5.48,2.18-.51,2.95,2.81.77,3.31-19.51,4.55-48.79,7.58-68.73,5.55M1797.74,451.67c-14.3,94.93-138.4,177.36-231.67,197.78-13.92,3.05-12.08,1.25.11,3.95,5.23,1.16,9.29,2.66,11.25,4.61,2.92,2.92,3.05,6.19-.61,9.86-11.71,11.71-33.33,23.85-63.51,32.04-24.45,6.64-54.64,10.71-89.86,9.88-7.19-.17-14.38-.26-21.57-.38.98,4.6,5.25,8.58,4.25,14.22-1.12,6.36-8.07,7.75-13.53,7.62-7.15-.17-16.86-2.82-26.44-7.65-10.84-5.46-11.87-5.71-15.54,5.41-2.06,6.25-6.52,8.22-12.47,6.26-2.85-.94-6.19-2.66-10.08-4.66-20.52-10.55-32.29-13.98-54.28-8.93-39.05,8.98-78.77,14.98-118.75,17.7-43.88,2.98-48.64-27.89-2.3-29.23,37.14-1.08,70.96-5.25,106.88-13.2,3.92-.87,7.94-1.56,11.44-3.67,8.91-5.38,9.62-16.35,10.43-28.79.77-11.86,1.62-24.91,8.83-36.79,4.77-7.87,11.64-12.88,16.68-14.66,5.52-1.95,11.97-.08,10.05,6.86-2.05,7.39-3.23,15.29-4.44,22.87-.68,4.29.55,6.42,3.43.14,3.37-6.23,4.93-14.75,7.1-23.65,2.39-9.79,4.88-20.04,9.41-28.87,6.52-12.3,13.71-10.48,16.22,2.59.53,2.78,1.42,5.56,1.82,8.11,1.09,7.74,2.46,6.41,3.81.3.54-2.46,1.3-5.34,2.22-8.69,8.22-29.8,18.97-55.14,36.51-80.71,3.28-4.79,12.99-15.49,16.87-4.96,6.38-14.62,14.81-27.58,23.46-37.7,7.61-8.91,13.46-14.44,17.46-16.61,4.27-2.32,8.88-1.67,9.96,3.69.81,3.97-2.33,18.82-2.41,25.82-.05,5.16-.11,11.05-.78,17.45,29.51-50.19,100.71-130.7,154.17-154,13.11-31.3,33.34-61.14,57.51-84.86,4.23-19.39,11.76-41.53,36.85-78.12,9.43-13.76,23.28-30.62,24.59-1.68,7.74-11.43,12.48-28.01,17.64-46.08,8.06-28.23,17.13-59.99,40.56-83.36,12.55-12.53,19.61-24.79,24.88-33.93,8.33-14.46,12.84-22.29,25.73-14.73,56.09,32.92,73.84,122,51.39,179.46-1.67,4.29-1.52,4.17,1.56.86,1.61-1.72,3.18-3.62,4.74-5.49,4.69-5.66,9.24-11.14,13.7-10.77,6.47.41,7.65,7.4,5.96,27.79-1.98,23.91-7.96,61.1-19.57,95.28-8.35,24.6-19.65,47.69-34.53,63.32-1.51,1.52-2.94,2.74-4.04,3.72-2.84,2.51-2.4,2.99,1.88,3.48,9.51,2.17,23.31,3.35,17.44,16.05-18.21,39.41-45.98,55.15-67.11,67.12-4.45,2.52-9.03,5.08-13.3,7.91M1849.73,63.47c1.03,4.62,2.14,9.11,3.09,13.76,12.31,60.59,3.08,131.14-23.36,199.87-29.45,76.55-80.51,152.96-148.04,219.68-52.87,52.24-116.25,100.15-186.93,139.45-58.87,32.72-122.8,59.46-189.94,77.74,10.62,2.37,19.56,6.96,26.65,10.61,3.6,1.85,6.69,3.44,9.1,4.23,1.85.61,3.44-.62,3.87-1.92,5.1-15.47,10.46-16.71,25.07-9.35,8.69,4.38,17.32,6.78,23.54,6.93,3.45.08,7.99.08,6.21-4.43-1.18-2.99-3.86-7.81-3.91-10.72-4.52-.05-8.65-.04-11.59.08-4.47.18-4.73-6.61-.27-6.79,13.05-.56,27.23.08,40.39.39,34.45.81,63.99-3.18,87.92-9.67,25.34-6.88,44.26-16.52,55.93-26.17,5.1-4.21,7.67-4.47.39-6.62-16.94-5-41.19-3.56-59.56-4.8-4.46-.3-4.01-7.09.45-6.79,16.73,1.13,40.58-3.48,56.71-7.29,94.57-22.34,200.33-90.89,223.21-179.89,2.05-7.97,3.45-8.4-3.42-5.33-3.34,1.49-7.03,3.1-10.96,4.75-4.13,1.73-6.77-4.55-2.64-6.28,12.22-5.13,24.5-10.52,36.04-17.06,19.92-11.29,45.8-26.13,63.29-61.91,3.36-6.88-.44-6.83-12.2-9.42-2.46-.54-5.14-.78-7.63-1.21-6.56-.93-7.93-4.4-2.5-8.41,1.83-1.35,5.06-3.74,9.3-8.19,14.12-14.83,24.94-37.04,33.02-60.82,11.4-33.56,17.27-70.13,19.22-93.66.31-3.74.53-6.87.69-9.46.87-14.92.35-13.13-8.34-2.67-1.69,2.04-3.4,4.1-4.98,5.79-10.5,11.25-18.62,6.75-12.87-7.97,21.22-54.3,4.65-139.94-48.49-171.12-6.99-4.11-10.3,1.64-16.41,12.25-5.47,9.49-12.79,22.22-25.97,35.37-22.15,22.1-30.96,52.97-38.8,80.41-6.41,22.42-12.18,42.64-24.17,54.98-.26,11.06-.56,22.11-.98,33.17-.16,4.46-6.95,4.22-6.79-.24.54-14.47,1.12-29.12,1.14-43.58.02-10.72.29-12.21-6.59-2.82-1.62,2.21-3.55,4.97-5.79,8.23-30.07,43.86-34.22,66.27-38.35,88.62-1.35,7.32-2.71,14.62-4.93,22.68-1.19,4.31-7.74,2.5-6.55-1.81,2.1-7.6,3.53-15.26,4.96-23-27.54,29.51-49.82,67.93-59.45,107.23-1.05,4.34-7.65,2.75-6.6-1.6,1.97-8.03,4.42-15.95,7.3-23.72-52.05,26.7-114.55,98.62-144.64,148.37-7.3,12.08-13.93,25.01-20.35,37.61-2.03,3.99-8.1.9-6.07-3.09,4.5-8.82,8.56-15.05,11.14-24.48,3.19-11.67,3.3-22.53,3.4-31.18.15-14.61,7.02-30.97-4.19-18.08-2.32,2.66-5.48,5.69-8.87,9.66-9.2,10.78-18.16,24.94-24.44,40.94-5.4,13.76-8.64,28.48-8.64,43.29,0,4.48-6.82,4.48-6.82,0,0-9.2,1.18-18.26,3.24-27,1.06-5.45,1.4-9.87,2-13.26.99-5.6.33-9.99-5.21-1.91-17.13,24.98-27.55,49.59-35.58,78.69-4.02,14.56-5.86,22.65-11.97,21.98-3.15-.35-6.09-5.61-8.53-21.8-.93-6.15-1.9-5.47-4.09-1.2-4.16,8.1-6.56,17.96-8.85,27.38-2.28,9.36-4.46,18.31-8.22,25.27-5.47,10.66-15.9,13.5-15.47-.35.16-8.18,1.2-15.55,3.32-23.47.54-2,.9-3.66-2.61-1.72-3.49,1.93-7.55,5.51-10.65,10.62-6.33,10.43-7.12,22.62-7.84,33.71-.66,10.17-1.27,19.5-5.51,26.49,149.88-38.4,305.66-132.17,414.56-250.67,99.07-107.8,159.22-236,140.49-361.33l-1.84-13.45c-1.45-10.54,11.46-12.87,13.76-2.5Z"/>
</svg>