<?xml version="1.0" encoding="UTF-8"?>
<svg xmlns="http://www.w3.org/2000/svg" version="1.1" viewBox="0 0 396.87 525.52">
  <path d="M198.39,514.67h-2c-1.35-1.62-2.55-3.39-4.06-4.84-31.97-30.79-61.53-63.74-88.68-98.85-28.09-36.32-53.22-74.49-71.69-116.73-10.64-24.33-18.97-49.47-20.99-76.04-2.89-37.99,4.92-73.88,24.29-106.98C73.47,45.92,145.22,8.13,224.4,19.27c51.02,7.18,92.56,32.03,123.29,73.45,31.95,43.06,43.61,91.34,33.65,144.39-5.73,30.54-17.61,58.82-32.2,86.02-32.54,60.68-75.62,113.46-122.86,163.08-9.16,9.62-18.59,18.98-27.89,28.46ZM50.2,201.86c2.27,1.16,3.38,1.78,4.52,2.3,30.75,13.99,61.52,27.91,92.2,42.06,2.45,1.13,5,3.45,6.11,5.86,13.87,30.05,27.48,60.22,41.17,90.36.85,1.87,1.88,3.66,3.28,6.37,1.37-2.62,2.26-4.16,3-5.77,13.7-30.13,27.31-60.3,41.18-90.36,1.19-2.57,3.68-5.21,6.23-6.39,30.05-13.92,60.22-27.56,90.36-41.28,1.77-.81,3.54-1.62,6.31-2.88-2.65-1.39-4.32-2.37-6.08-3.17-29.98-13.65-59.96-27.32-89.99-40.85-3.4-1.53-5.51-3.63-7.06-7.07-13.7-30.51-27.58-60.93-41.43-91.38-.58-1.28-1.34-2.47-2.54-4.67-1.3,2.44-2.2,3.93-2.91,5.5-13.86,30.45-27.65,60.93-41.64,91.32-1,2.17-3.09,4.42-5.24,5.41-29.32,13.52-58.73,26.81-88.12,40.18-2.81,1.28-5.58,2.65-9.34,4.45Z"/>
</svg>