<?xml version="1.0" encoding="UTF-8"?>
<svg id="Layer_1" data-name="Layer 1" xmlns="http://www.w3.org/2000/svg" version="1.1" viewBox="0 0 385 513">
  <defs>
    <style>
      .cls-1 {
        fill: #edebea;
      }

      .cls-1, .cls-2, .cls-3, .cls-4, .cls-5, .cls-6, .cls-7, .cls-8, .cls-9, .cls-10, .cls-11, .cls-12, .cls-13 {
        stroke-width: 0px;
      }

      .cls-2 {
        fill: #cd6b31;
      }

      .cls-3 {
        fill: #cb6329;
      }

      .cls-4 {
        fill: #c9602c;
      }

      .cls-5 {
        fill: #d07a37;
      }

      .cls-6 {
        fill: #e0b088;
      }

      .cls-7 {
        fill: #ce6f2c;
      }

      .cls-8 {
        fill: #ce702a;
      }

      .cls-9 {
        fill: #cd6e26;
      }

      .cls-10 {
        fill: #cf7631;
      }

      .cls-11 {
        fill: #cf742e;
      }

      .cls-12 {
        fill: #cc6928;
      }

      .cls-13 {
        fill: #eeeded;
      }
    </style>
  </defs>
  <path class="cls-6" d="M215.54,6.03c6.59,1.35,13.24,2.44,19.75,4.08,58.33,14.65,100.75,49.08,127.5,102.9.65,1.31,1.7,2.52,1.35,4.16-1.61-.29-1.84-1.79-2.46-2.91-3.34-5.94-6.4-12.05-10-17.83-4.64-7.43-9.24-14.95-15.88-20.88-1.31-1.89-2.43-3.96-3.97-5.64-17.49-18.94-37.82-34.01-61.3-44.75-8.79-3.45-17.33-7.61-26.72-9.34-1.69-.61-3.35-1.35-5.08-1.82-10.04-2.75-20.36-4.35-30.67-4.78-7.48-.31-15.02-2.47-22.55-.38-7.65-.08-15.2.69-22.77,1.97-42.05,7.11-77.61,26.09-106.88,57.17-16.65,17.68-29.21,37.76-38.1,60.29-1.05,2.67-1.03,5.97-3.75,7.87,2.95-13.12,8.97-24.99,15.64-36.45C53.16,59.31,87.12,31.32,131.1,15.56c11.91-4.27,24.19-7.13,36.78-8.56.97-.11,2.02,0,2.69-.96,14.99,0,29.99,0,44.98,0Z"/>
  <path class="cls-2" d="M328.47,341.9c-4.81,10.07-11.43,19.02-17.76,28.12-32.94,47.46-70.72,90.79-112.1,131.04-1.48,1.44-3.47,2.54-4.06,4.77h-3c-32.95-31.63-63.56-65.39-91.73-101.32-14.16-18.06-27.85-36.52-39.4-56.43,0,0,.25-.24.25-.24,2.15.3,2.71,2.29,3.7,3.7,2.84,4.05,5.5,8.22,8.23,12.34,21.47,31.35,45.29,60.85,70.69,89.05,14.77,16.4,30.12,32.28,46.21,47.42,1.92,1.81,3.05,2.72,5.67.55,15.16-12.59,27.92-27.56,41.3-41.85,15.37-16.43,29.93-33.65,43.83-51.4,14.92-19.05,29.28-38.48,42.37-58.85,1.58-2.46,1.88-6.32,5.8-6.92Z"/>
  <path class="cls-5" d="M14,136.14c2.72-1.91,2.7-5.21,3.75-7.87,8.89-22.53,21.45-42.61,38.1-60.29,29.27-31.08,64.83-50.06,106.88-57.17,7.57-1.28,15.11-2.04,22.77-1.96,4.21,10.47,6.96,21.42,10.73,32.02,1.47,4.11.62,6.12-2.52,8.11-2.52-.34-2.82,1.6-3.57,3.28-5.43,12.03-10.98,23.99-16.4,36.03-7.75,17.22-15.42,34.47-23.12,51.71-1.01,1.14-1.62,2.48-1.88,3.98-.45.97-.9,1.94-1.35,2.92-1.59.87-3.14,1.86-4.79,2.61-28.27,12.86-56.54,25.69-84.82,38.53-3.02,1.37-6.04,2.76-9.09,4.08-2,.86-1.44,1.7-.08,2.62.34.75.68,1.5,1.02,2.25-.07,2.84,1,5.65,3.03,7.11,3.34,2.39.96,4.89.73,7.17-.26,2.64-2.89,1.32-4.51,1.71-5.43,1.31-9.81-2.78-14.85-2.91-5.79-.15-11.09-1.59-16.28-3.99-3.89-1.8-7.8-3.84-12.37-3.01-1.56-9.92-.26-19.81.63-29.66.96-10.57,3.24-20.95,6.09-31.19,1.02-.46,1.84-.99.76-2.19.38-1.29.76-2.57,1.14-3.86Z"/>
  <path class="cls-11" d="M5.38,203.04c4.57-.83,8.48,1.21,12.37,3.01,5.2,2.41,10.49,3.84,16.28,3.99,5.04.13,9.42,4.22,14.85,2.91,1.62-.39,4.25.93,4.51-1.71.23-2.28,2.6-4.77-.73-7.17-2.04-1.46-3.1-4.27-3.03-7.11,1.21.86,2.64,1.53,3.59,2.62,8.81,10.14,18.83,19.07,28.23,28.62,8.24,8.38,16.76,16.49,25.16,24.72,2.92,3.74,6.25,7.07,9.99,10h0c15.52,15.34,29.47,32.18,45.37,47.14,3.04,2.86,2.94,6.24,2.37,9.63-.37,2.16-2.03,3.06-3.91.88-2.33-2.7-5.07-1.96-7.69-.68-1.77.86-3.35,1.95-5.41,2.28-3.9.63-6.33,2.67-5.81,7.15.12,1.06.79,3.14-1.34,3-1.51-.1-2.7-1.56-2.4-3.26.96-5.53-1.54-2.87-3.38-1.44-1.13.88-2.18,1.47-3.62.88-2.27-.93-4.47-.36-6.8.03-4.69.79-9.4,3.08-13.55,3.39-6.03.46-12.14.48-17.99,2.09-3.65,1-7.38-1.73-9.88-.72-5.22,2.12-10.54,1.63-15.73,2.65-.62.12-1.5.27-1.76.71-2.83,4.77-4.95,1.34-6.72-.77-1.61-1.92-2.62-4.33-5.72-3.97-.98-1.48-1.76-3.14-2.98-4.38-1.96-2-1.46-5.95-5.17-6.52,0,0,.05.05.05.05-1.01-5.08-2.41-9.96-7.06-13.08-1.09-1.11-1.72-2.46-1.99-3.98,1.73-1.71.36-1.86-1.01-2.02-1.36-1.82-2.3-3.84-2.88-6.03,1.57-1.52.4-1.81-.91-2.02-.23-.1-.29-.26-.17-.48-.69-4.72-1.54-9.36-5.67-12.51-.23-.26-.3-.56-.23-.89.01-.83-.11-1.61-.9-2.09-10.12-23.98-17.31-48.69-18.32-74.9Z"/>
  <path class="cls-2" d="M44.47,321.01c3.71.57,3.2,4.51,5.17,6.52,1.22,1.24,2,2.91,2.98,4.38.02.98.04,1.96.06,2.94l-.26.24c-3.28-4.34-5.78-9.12-7.96-14.08Z"/>
  <path class="cls-2" d="M60.43,348.09c-3.33-3.93-5.75-8.41-8-13,0,0,.26-.24.26-.24,4.4,3.27,6.66,7.85,7.99,13l-.25.24Z"/>
  <path class="cls-2" d="M37.46,307.97c4.65,3.12,6.05,7.99,7.06,13.08-3.02-4-5.06-8.53-7.06-13.08Z"/>
  <path class="cls-2" d="M24.83,280.93c4.13,3.15,4.98,7.79,5.67,12.51-2.51-3.89-4.13-8.18-5.67-12.51Z"/>
  <path class="cls-6" d="M12.86,140c1.08,1.19.26,1.73-.76,2.19-.33-.93-.11-1.67.76-2.19Z"/>
  <path class="cls-2" d="M30.67,293.92c1.31.22,2.48.5.91,2.02-.74-.48-.94-1.2-.91-2.02Z"/>
  <path class="cls-2" d="M34.47,301.97c1.37.16,2.74.31,1.01,2.02-.34-.67-.67-1.35-1.01-2.02Z"/>
  <path class="cls-2" d="M23.7,277.94c.79.49.91,1.26.9,2.09-.71-.52-.95-1.24-.9-2.09Z"/>
  <path class="cls-9" d="M328.47,341.9c-3.92.6-4.22,4.46-5.8,6.92-13.1,20.37-27.45,39.8-42.37,58.85-13.9,17.75-28.46,34.97-43.83,51.4-13.37,14.29-26.14,29.26-41.3,41.85-2.62,2.17-3.74,1.26-5.67-.55-16.09-15.14-31.44-31.02-46.21-47.42-25.4-28.21-49.22-57.71-70.69-89.05,7.75-.51,15.7,1.49,23.24-1.1,6.1-2.1,12.46-1.23,18.68-2.48,6.91-1.39,13.58-4.05,20.94-4.14,5.77-.07,11.1-3.44,16.54-5.87,7.8-3.48,17.14-2.75,24.76-7.55,2.62-1.65,4.83-.26,6.63,1.61,1.72,1.8,1.58,3.92.23,5.92-1.19,1.76-1.6,3.44.14,5.74,2.3-5.25,6.17-7.66,11.24-8.47,1.29-.21,2.5-1,2.55-2.65,3,2.67,6,5.33,9,8,5.44,5.6,10.78,11.29,16.33,16.78,4.59,4.54,8.56,9.88,14.38,12.96,2.87,1.52,4.89,5.07,7.52,5.35,3,.32,2.79-4.79,5.53-6.47,5.55-3.4,9.49-8.68,13.99-13.19,12.66-12.7,25.69-25.02,38.82-37.2,4.95-4.59,8.87-10.21,14.55-14.11,2.92-2.01,5.1-5.14,7.47-7.93,4.47-5.26,9.53-10.03,14.48-14.86,4.96-4.84,9.5-10.1,14.39-15.02,2.87-2.89,4.53-3.84,7.59-1.22,0,1.13-.37,2.12-1.16,2.94-1.39.02-1.97,1.01-2.51,2.07-2.64,5.31-5.46,10.55-7.84,15.97-.76,1.73-2.09,3.8-.65,5.95-.33.67-.66,1.33-.98,2-3.63,1.98-4.53,5.41-4.88,9.14,0,0,.05-.04.04-.04-2.85.44-3.22,2.28-2.63,4.67-.18.41-.35.82-.53,1.23-2.17.2-1.99,1.76-1.89,3.27-.4.58-.79,1.16-1.19,1.74-.28.39-.57.78-.85,1.18,0,.29-.06.56-.19.81-2.12.27-1.85,1.82-1.77,3.27-2.04,3.24-4.08,6.48-6.11,9.72ZM188.56,361.34c-.04-1.65.21-3.6-1.86-4.12-2.4-.6-1.9,1.61-2.33,2.87-.76,2.22-1.91,3.46-4.42,2.02-.82-.47-2.5-1.03-2.67-.78-2.77,4.04-5.04,1.31-7.71-.17-1.85-1.03-3.41.53-4.66,1.94-.65.73-1.52,1.53-.52,2.52,1.2,1.17,2.58,1.1,4.12.45,2.02-.86,3.48-.56,5.64.92,2.6,1.78,6.72,3.24,9.78,1.32,2.16-1.35,5.07-3.36,4.63-6.97Z"/>
  <path class="cls-12" d="M361.61,277.99c-3.05-2.62-4.72-1.67-7.59,1.22-4.89,4.92-9.43,10.17-14.39,15.02-4.95,4.83-10.01,9.6-14.48,14.86-2.37,2.79-4.55,5.93-7.47,7.93-5.69,3.91-9.6,9.52-14.55,14.11-13.13,12.18-26.16,24.5-38.82,37.2-4.5,4.51-8.44,9.8-13.99,13.19-2.74,1.68-2.53,6.79-5.53,6.47-2.63-.28-4.64-3.83-7.52-5.35-5.82-3.08-9.79-8.42-14.38-12.96-5.55-5.49-10.9-11.18-16.33-16.78,2.84.25,5.3-.59,7.18-2.73,2.63-2.98,5.14-6.06,7.73-9.09,2.22-2.61,3.85-5.17,2.23-8.93-.85-1.98-.24-4.61,1.43-6.05,3.88-3.34,4.47-8.88,8.56-12.08,1.02-.8,1.76-2.64,1.73-3.99-.14-7.81,4.43-13.1,9.02-18.67,6.18-7.49,12.77-14.79,16.13-24.19.48-1.34,1.39-2.21,2.49-3.01,7.6-5.54,16.4-9.15,23.4-15.86,3.38-3.24,7.36-6.92,12.26-8.23,8.95-2.39,16.54-7.1,23.94-12.47,2.66-1.93,7.03-4.95,9.33-2.87,3.46,3.14,4.64.51,6.38-.88,2.82-2.26,5.09-5.3,8.1-7.23,4.65-2.99,5.89-6.68,4.02-11.68,6.85,6.68,13.72,13.34,20.53,20.07,1.68,1.66,3.27,3.31,5.91,3.01-3.06,17.28-8.18,33.92-15.31,49.95Z"/>
  <path class="cls-8" d="M376.92,228.04c-2.64.3-4.22-1.35-5.91-3.01-6.81-6.72-13.68-13.38-20.53-20.07-3.18-4.65-7.89-7.61-12.16-11.06-.39-1.28-1.52-1.5-2.58-1.99-5.47-2.5-10.89-5.12-16.32-7.7-2.43-3.08-4.26-6.72-8.19-8.38-2.49-1.05-4.67-2.37-4.92-5.59-.1-1.26-1.33-2.97-2.53-1.13-1.18,1.82-2.4,2.2-4.06,1.56-1.85-.71-1.17-2.53-1.2-3.92-.1-6.17-.49-12.12-5.99-16.39-1.56-1.21-2.18-3.28-2.03-5.39,2.14.97,3.72,2.46,5.3,4.3,3.89,4.53,8.11,8.81,12.53,12.83,3.36,3.05,6.55,2.4,8-1.03,3.52-8.33,6.6-16.91,8.26-25.71,1.68-8.85,5.91-17.18,5.67-26.36-.22-8.47,3.49-16.54,2.22-25.08-.5-3.4.69-6.18,3.3-8.37,6.64,5.93,11.25,13.45,15.88,20.88,3.6,5.77,6.66,11.89,10,17.83.62,1.11.85,2.61,2.46,2.91.2.54.41,1.08.61,1.62-.35,2.3.16,4.22,2.38,5.39.3.82.61,1.63.91,2.45-.45,2.28.03,4.21,2.07,5.56.69,2.14,1.38,4.29,2.07,6.43-.79,1.19-.37,2.01.81,2.6,5.07,18.58,7.98,37.44,7.51,56.76-.25,10.14-1.28,20.17-3.57,30.05Z"/>
  <path class="cls-12" d="M349.45,304.91c-1.45-2.15-.11-4.22.65-5.95,2.38-5.42,5.2-10.66,7.84-15.97.53-1.07,1.11-2.06,2.51-2.07-2.98,8.31-6.71,16.28-10.99,23.99Z"/>
  <path class="cls-2" d="M343.59,316.05c.35-3.73,1.25-7.16,4.88-9.14-1.23,3.26-2.69,6.4-4.88,9.14Z"/>
  <path class="cls-6" d="M370.11,144.19c-2.04-1.35-2.52-3.28-2.07-5.56,1.54,1.54,2.1,3.44,2.07,5.56Z"/>
  <path class="cls-6" d="M367.12,136.19c-2.22-1.17-2.73-3.09-2.38-5.39,1.54,1.47,2.5,3.19,2.38,5.39Z"/>
  <path class="cls-2" d="M341,320.67c-.59-2.38-.22-4.23,2.63-4.67-.38,1.84-1.24,3.4-2.63,4.67Z"/>
  <path class="cls-2" d="M338.59,325.18c-.1-1.51-.29-3.07,1.89-3.27-.2,1.33-.83,2.43-1.89,3.27Z"/>
  <path class="cls-2" d="M334.59,332.18c-.08-1.45-.35-3.01,1.77-3.27-.01,1.4-.75,2.41-1.77,3.27Z"/>
  <path class="cls-6" d="M372.98,153.22c-1.18-.58-1.59-1.4-.81-2.6.72.73,1.3,1.5.81,2.6Z"/>
  <path class="cls-2" d="M336.55,328.09c.28-.39.57-.78.85-1.18.13.69-.31.97-.85,1.18Z"/>
  <path class="cls-11" d="M335.79,75.55c-2.61,2.2-3.8,4.97-3.3,8.37,1.26,8.54-2.44,16.61-2.22,25.08.24,9.18-3.99,17.51-5.67,26.36-1.67,8.8-4.75,17.39-8.26,25.71-1.45,3.43-4.64,4.08-8,1.03-4.42-4.02-8.64-8.3-12.53-12.83-1.58-1.84-3.15-3.33-5.3-4.3-4.81-4.64-9.74-9.16-14.38-13.96-3.72-3.84-7.09-8.01-10.61-12.03,1.53-.18,3.58.58,3.93-1.91,1.6-11.37,4.86-22.53,4.98-34.06.21-19.37,1.35-38.84-3.92-57.86,23.48,10.74,43.81,25.82,61.3,44.75,1.55,1.67,2.66,3.75,3.97,5.64Z"/>
  <path class="cls-10" d="M193.71,48.98c3.14-2,3.99-4,2.52-8.11-3.78-10.59-6.52-21.55-10.73-32.02,7.53-2.09,15.08.06,22.55.38,10.31.43,20.63,2.03,30.67,4.78,1.73.47,3.39,1.21,5.08,1.82-2.62,2.75-.53,12.85,2.93,13.92.55.17,1.28-.12,1.89-.32,1.6-.51,3.53-2.44,4.55.34.9,2.46.55,4.98-2.34,6.26-1.52.67-2.89,1.41-2.92,3.41.61.07.94.19,1.22.12,1.68-.42,3.18-4.48,4.98-.78,1.17,2.41.2,5-3.28,5.22-1.25.08-1.52.53-1.54,1.84-.04,2.79-.52,5.57-.74,8.36-.25,3.09.65,4.58,3.98,2.84,1.19-.62,2.73-1.96,3.78.2,1.33,2.74-2.18,8.01-5.39,7.98-1.47-.01-2.2.35-2.35,1.79-.34,3.29-.73,6.57-1,9.86-.11,1.33-.05,3.11,1.77,2.95,3.22-.28,3.95,2.61,5.86,3.98,2.01,1.44,1.14,2.94.12,4.27-1.11,1.46-2.3.63-3.42-.24-1.21-.94-2.65-3.06-3.99-.78-1.16,1.97-.35,3.82,2.47,4.11,1.25.13,2.09,1.07,1.94,2.46-.11,1.03-1.13,1.6-1.78,1.23-3.03-1.74-5.25,1.46-7.99,1.13-1.37-1.2-2.8-2.33-4.09-3.61-13.2-13.16-26.35-26.38-39.6-39.49-1.06-1.05-1.77-3.61-4.23-2.01-.87-.36-.7-1.22-.9-1.9Z"/>
  <path class="cls-11" d="M242.53,96c2.74.33,4.96-2.86,7.99-1.13.65.37,1.67-.2,1.78-1.23.15-1.39-.69-2.33-1.94-2.46-2.82-.29-3.62-2.14-2.47-4.11,1.34-2.28,2.78-.16,3.99.78,1.12.88,2.31,1.7,3.42.24,1.02-1.33,1.89-2.83-.12-4.27-1.91-1.37-2.64-4.27-5.86-3.98-1.82.16-1.88-1.62-1.77-2.95.27-3.29.66-6.57,1-9.86.15-1.44.87-1.81,2.35-1.79,3.22.03,6.72-5.24,5.39-7.98-1.05-2.16-2.59-.82-3.78-.2-3.33,1.73-4.23.24-3.98-2.84.22-2.79.7-5.57.74-8.36.02-1.31.29-1.76,1.54-1.84,3.48-.22,4.45-2.81,3.28-5.22-1.8-3.7-3.29.35-4.98.78-.28.07-.61-.05-1.22-.12.03-2,1.4-2.74,2.92-3.41,2.89-1.28,3.24-3.8,2.34-6.26-1.02-2.79-2.95-.86-4.55-.34-.61.2-1.35.49-1.89.32-3.46-1.07-5.55-11.17-2.93-13.92,9.39,1.72,17.93,5.88,26.72,9.33,5.27,19.02,4.13,38.49,3.92,57.86-.12,11.53-3.39,22.69-4.98,34.06-.35,2.49-2.4,1.73-3.93,1.91-7.66-7-15.32-13.99-22.99-20.99,0-.67,0-1.33,0-2Z"/>
  <path class="cls-7" d="M197.55,344.9c-.05,1.65-1.26,2.44-2.55,2.65-5.07.81-8.94,3.22-11.24,8.47-1.74-2.3-1.33-3.98-.14-5.74,1.35-2,1.5-4.12-.23-5.92-1.8-1.87-4.01-3.26-6.63-1.61-7.62,4.81-16.96,4.07-24.76,7.55-5.44,2.43-10.77,5.8-16.54,5.87-7.36.09-14.03,2.75-20.94,4.14-6.22,1.25-12.57.38-18.68,2.48-7.53,2.59-15.49.59-23.24,1.1-2.73-4.12-5.39-8.29-8.23-12.34-.99-1.41-1.55-3.4-3.7-3.7-1.33-5.15-3.6-9.73-7.99-13-.02-.98-.04-1.96-.06-2.94,3.1-.36,4.11,2.06,5.72,3.97,1.77,2.11,3.89,5.55,6.72.77.26-.44,1.14-.58,1.76-.71,5.19-1.03,10.51-.53,15.73-2.65,2.51-1.02,6.23,1.72,9.88.72,5.86-1.61,11.97-1.63,17.99-2.09,4.15-.31,8.86-2.6,13.55-3.39,2.33-.39,4.53-.96,6.8-.03,1.44.59,2.49,0,3.62-.88,1.83-1.43,4.34-4.09,3.38,1.44-.3,1.7.89,3.16,2.4,3.26,2.13.15,1.47-1.94,1.34-3-.52-4.48,1.9-6.52,5.81-7.15,2.07-.33,3.64-1.42,5.41-2.28,2.62-1.28,5.36-2.02,7.69.68,1.88,2.18,3.54,1.28,3.91-.88.58-3.39.67-6.77-2.37-9.63-15.9-14.96-29.85-31.8-45.37-47.14,2.96-.29,6.38,1.11,8.51-2.37.2-.33,1.39-.48,1.75-.21,5.65,4.21,11.19,2,16.64-.31,3.33-1.4,6.09-.94,8.4,1.75,1.56,1.82,3.47,2.37,5.73,2.14.98,1.72,2.09,3.37,2.91,5.16,9.75,21.37,19.41,42.77,29.22,64.11.9,1.95.93,4.69,3.67,5.47-.52,3.33,3.29,3.79,4.11,6.23ZM105.06,341.57c1.19-.53,2.51-.95,2.46-2.64-.03-1.12-.48-2.03-1.72-1.8-1.55.28-2.78,1.23-2.81,2.91-.02,1.12.92,1.63,2.07,1.54ZM79.58,341.03c-.08-.7-.06-1.75-1.15-1.69-1.24.07-2.11,1.06-2.41,2.19-.3,1.1.42,1.99,1.57,1.99,1.45,0,1.83-1.15,2-2.49ZM122.81,339.59c.79-.3,1.53-.72,1.32-1.7-.23-1.06-1.17-.91-1.96-.86-.74.05-1.26.52-1.12,1.24.17.85.81,1.35,1.76,1.32ZM88.43,340.33c-.05-.81-.6-1.24-1.27-.96-.49.21-1.02.85-1.12,1.37-.15.86.63,1,1.3.95.79-.07,1.02-.67,1.08-1.36ZM98.33,338.29c-.12.28-.4.61-.32.81.08.2.51.26.79.38.12-.28.4-.61.32-.81-.08-.2-.51-.26-.79-.38Z"/>
  <path class="cls-1" d="M193.71,48.98c.19.68.02,1.54.9,1.9.89,4.12,3.38,7.52,5.08,11.27,12.95,28.61,26,57.18,39.02,85.76-2.66,2.87.32,3.21,1.89,3.93,9.2,4.22,18.43,8.36,27.67,12.5,15.59,6.99,31.29,13.74,46.73,21.05,6.56,3.11,13.7,5.1,19.53,9.69-10.67,4.89-21.35,9.78-32.02,14.67-.08-3.94-4.73-3.14-6.07-5.92-4.9-10.18-15.46-11.85-24.42-15.76-2.68-1.17-5.57-1.93-8.2-3.32-5.34-2.82-10.25-6.37-15.42-9.38-5.46-3.19-10.31-7.08-13.32-12.07-6.82-11.33-10.3-24.36-16.84-35.91-.65-1.15-1.38-2.4-1.52-3.66-.7-6.37-4.04-11.18-8.55-15.42-4.42-4.15-7.37-3.97-10.78,1.1-5.82,8.64-10.54,18.04-13.96,27.71-2.78,7.86-7.4,14.59-10.52,22.14-.96,2.32-2.26,4.44-4.12,6.51-4.24,4.74-8.84,8.64-14.27,11.97-6.01,3.7-12.1,7.15-18.58,9.89-2.19.92-4.59,1.13-6.92,2.04-6.79,2.63-12.4,7.32-19.23,9.86-8.21,3.06-17.04,5.08-23.57,11.62-9.8-3.92-19.38-8.31-28.79-13.06,1.62-2.22,2.7-4.76,5.36-6.24,10.57-5.86,22.06-9.74,32.79-15.15,16.52-8.34,34.88-13.08,49.52-25.07,1.33-1.09,4.31-1.83,2.3-4.73.45-.97.9-1.94,1.35-2.92,1.98-.69,3.41-1.63,1.88-3.98,7.7-17.24,15.37-34.49,23.12-51.71,5.42-12.03,10.97-24,16.4-36.03.76-1.68,1.06-3.62,3.57-3.28Z"/>
  <path class="cls-2" d="M57.42,198.08c9.42,4.75,19,9.14,28.79,13.06,1.75.91,3.47,1.9,5.26,2.71,17.19,7.83,34.41,15.61,51.58,23.47,1.6.73,3.63,1.04,4.43,2.96,3.29,7.93,7.7,15.37,10.14,23.66-2.26.23-4.17-.32-5.73-2.14-2.31-2.69-5.07-3.15-8.4-1.75-5.46,2.3-11,4.52-16.64.31-.36-.27-1.55-.11-1.75.21-2.13,3.49-5.55,2.08-8.51,2.37,0,0,0,0,0,0-.58-2.92,1.23-4.97,2.7-7.07,1.45-2.07,1.02-2.92-1.43-2.92-3.75,0-7.51,0-11.26,0-8.4-8.23-16.92-16.34-25.16-24.72-9.39-9.56-19.42-18.49-28.23-28.62-.95-1.09-2.38-1.76-3.59-2.62-.34-.75-.68-1.5-1.02-2.25,1.54.47,3.09.95,4.63,1.42,1.13.55,2.26,1.11,3.39,1.66.22.23.48.32.79.27Z"/>
  <path class="cls-13" d="M57.42,198.08c-.31.05-.58-.04-.79-.27-.23-.88,1.08-2.19-.2-2.56-.9-.26-2.12.56-3.19.9-1.54-.47-3.09-.94-4.63-1.42-1.36-.92-1.92-1.75.08-2.62,3.05-1.32,6.07-2.71,9.09-4.08,28.28-12.84,56.56-25.67,84.82-38.53,1.65-.75,3.19-1.73,4.79-2.61,2.01,2.9-.97,3.64-2.3,4.73-14.64,11.99-33,16.73-49.52,25.07-10.73,5.41-22.22,9.3-32.79,15.15-2.66,1.47-3.74,4.02-5.36,6.24Z"/>
  <path class="cls-13" d="M150.62,140c1.52,2.34.1,3.29-1.88,3.98.26-1.5.87-2.83,1.88-3.98Z"/>
  <path class="cls-7" d="M106.6,252.94c3.75,0,7.51,0,11.26,0,2.45,0,2.88.85,1.43,2.92-1.47,2.1-3.28,4.15-2.7,7.07-3.74-2.92-7.07-6.26-9.99-10Z"/>
  <path class="cls-3" d="M197.55,344.9c-.83-2.43-4.64-2.9-4.11-6.23.73-1.59,1.45-3.18,2.18-4.78.27-.5.54-1.01.81-1.51-.13-.21-.09-.36.13-.47.81-.45.98-1.21.95-2.05v.02c.86-.43,1.02-1.2.97-2.07l-.03.02c6.72.16,10.88-2.95,13.18-8.62,2.01-4.93,5.07-9.43,7.32-14.27,2.44-5.25,7.87-8.04,9.88-13.88,5.26-15.27,15.15-27.68,26.31-39.07,2.5-2.56,5.93-4.13,8.61-6.68,6.31-6,13.81-10.23,21.96-13.21,4.89-1.79,8.99-4.51,12.87-7.99,6.01-5.39,12.62-10.15,20.5-12.37,3.54-1,6.04-2.54,7-6.03,1.03-3.73,3.57-5.66,6.96-7.1,1.96-.83,4.79-1.23,4.45-4.51.26-.14.54-.2.84-.21,4.27,3.45,8.98,6.41,12.16,11.06,1.87,5,.63,8.69-4.02,11.68-3,1.93-5.27,4.97-8.1,7.23-1.74,1.39-2.92,4.02-6.38.88-2.3-2.08-6.67.94-9.33,2.87-7.39,5.37-14.98,10.08-23.94,12.47-4.9,1.31-8.89,4.99-12.26,8.23-7,6.71-15.8,10.32-23.4,15.86-1.09.8-2,1.67-2.49,3.01-3.36,9.4-9.95,16.7-16.13,24.19-4.59,5.56-9.16,10.85-9.02,18.67.02,1.35-.71,3.19-1.73,3.99-4.08,3.2-4.68,8.74-8.56,12.08-1.67,1.44-2.29,4.06-1.43,6.05,1.62,3.76,0,6.32-2.23,8.93-2.58,3.02-5.09,6.11-7.73,9.09-1.88,2.13-4.35,2.98-7.18,2.73-3-2.67-6-5.33-9-8Z"/>
  <path class="cls-7" d="M188.55,361.34c.44,3.61-2.48,5.61-4.63,6.97-3.06,1.92-7.19.46-9.78-1.32-2.16-1.48-3.62-1.78-5.64-.92-1.53.65-2.91.72-4.12-.45-1.01-.98-.13-1.78.52-2.52,1.25-1.41,2.81-2.97,4.66-1.94,2.67,1.48,4.94,4.22,7.71.17.17-.25,1.86.31,2.67.78,2.5,1.44,3.66.2,4.42-2.02.43-1.26-.07-3.47,2.33-2.87,2.08.52,1.83,2.47,1.86,4.12Z"/>
  <path class="cls-7" d="M242.53,98c7.66,7,15.32,13.99,22.99,20.99,3.52,4.02,6.89,8.19,10.61,12.03,4.64,4.8,9.57,9.32,14.38,13.96-.14,2.11.48,4.18,2.03,5.39,5.5,4.27,5.89,10.22,5.99,16.39.02,1.38-.65,3.21,1.2,3.92,1.66.64,2.88.26,4.06-1.56,1.19-1.85,2.43-.13,2.53,1.13.25,3.22,2.44,4.54,4.92,5.59,3.92,1.66,5.76,5.3,8.19,8.38-3.31-1.4-6.66-2.72-9.93-4.23-16.67-7.68-33.31-15.4-49.97-23.11-.39-1.08-.63-2.25-1.2-3.23-4.37-7.43-7.69-15.09-5.9-24.03.32-1.61-.78-2.09-2-2.88-3.21-2.09-5.36-5.54-4.61-9.11.78-3.72.11-6.7-1.16-10-1.18-3.05-2.22-6.24-2.11-9.62Z"/>
  <path class="cls-13" d="M259.52,156.87c16.65,7.71,33.3,15.43,49.97,23.11,3.27,1.5,6.62,2.82,9.93,4.23,5.44,2.58,10.85,5.2,16.32,7.7,1.06.49,2.19.71,2.58,1.99-.3,0-.57.07-.84.21-.99.33-1.98.65-2.97.98-5.83-4.59-12.97-6.59-19.53-9.69-15.44-7.31-31.14-14.06-46.73-21.05-9.23-4.14-18.47-8.28-27.67-12.5-1.56-.72-4.54-1.06-1.89-3.93,6.94,2.99,13.88,5.98,20.81,8.97Z"/>
  <path class="cls-2" d="M259.52,156.87c-6.94-2.99-13.88-5.98-20.81-8.97-13.02-28.58-26.07-57.14-39.02-85.76-1.7-3.75-4.19-7.15-5.08-11.27,2.46-1.6,3.17.97,4.23,2.01,13.25,13.11,26.4,26.32,39.6,39.49,1.29,1.28,2.72,2.41,4.09,3.61,0,.67,0,1.33,0,2-.11,3.38.93,6.57,2.11,9.62,1.28,3.3,1.94,6.28,1.16,10-.75,3.58,1.4,7.03,4.61,9.11,1.22.79,2.32,1.28,2,2.88-1.79,8.94,1.53,16.6,5.9,24.03.57.97.81,2.15,1.2,3.23Z"/>
  <path class="cls-13" d="M196.56,331.91c-.22.11-.26.27-.13.48-.27.5-.54,1.01-.81,1.51-.73,1.59-1.45,3.18-2.18,4.78-2.74-.79-2.78-3.52-3.67-5.47-9.81-21.34-19.48-42.74-29.22-64.11-.82-1.79-1.93-3.44-2.91-5.16-2.44-8.29-6.86-15.73-10.14-23.66-.8-1.92-2.83-2.23-4.43-2.96-17.18-7.86-34.39-15.64-51.58-23.47-1.79-.82-3.51-1.81-5.26-2.71,6.54-6.53,15.36-8.56,23.57-11.62,6.82-2.54,12.43-7.23,19.23-9.86,2.33-.9,4.73-1.11,6.92-2.04,6.48-2.73,12.57-6.19,18.58-9.89,5.43-3.34,10.03-7.23,14.27-11.97,1.85-2.07,3.16-4.19,4.12-6.51,3.12-7.55,7.74-14.28,10.52-22.14,3.42-9.67,8.14-19.07,13.96-27.71,3.41-5.07,6.36-5.25,10.78-1.1,4.51,4.24,7.85,9.05,8.55,15.42.14,1.26.87,2.52,1.52,3.66,6.54,11.55,10.02,24.59,16.84,35.91,3,4.99,7.86,8.88,13.32,12.07,5.16,3.01,10.07,6.57,15.42,9.38,2.64,1.39,5.52,2.16,8.2,3.32,8.97,3.91,19.52,5.59,24.42,15.76,1.34,2.78,5.99,1.97,6.07,5.92-19.91,9.11-39.79,18.27-59.75,27.27-3.09,1.39-5,3.3-6.36,6.41-4.72,10.79-9.77,21.44-14.6,32.19-7.82,17.39-15.57,34.81-23.34,52.22,0,0,.03-.02.03-.02-.79.47-.95,1.24-.98,2.07,0,0,.01-.02.01-.02-.74.49-.99,1.2-.95,2.05Z"/>
  <path class="cls-11" d="M105.06,341.57c-1.15.09-2.09-.42-2.07-1.54.03-1.68,1.26-2.63,2.81-2.91,1.24-.22,1.69.68,1.72,1.8.05,1.7-1.27,2.11-2.46,2.65Z"/>
  <path class="cls-11" d="M79.58,341.03c-.17,1.34-.55,2.5-2,2.49-1.15,0-1.86-.9-1.57-1.99.3-1.12,1.17-2.11,2.41-2.19,1.09-.06,1.07.99,1.15,1.69Z"/>
  <path class="cls-11" d="M122.8,339.59c-.94.03-1.59-.47-1.75-1.33-.14-.72.39-1.19,1.12-1.24.79-.05,1.73-.2,1.96.86.21.97-.53,1.4-1.33,1.7Z"/>
  <path class="cls-11" d="M88.43,340.33c-.06.69-.29,1.3-1.08,1.36-.67.06-1.45-.09-1.3-.95.09-.52.62-1.16,1.12-1.37.66-.28,1.21.14,1.27.96Z"/>
  <path class="cls-11" d="M98.33,338.29c.28.12.71.18.79.38.08.2-.2.53-.32.81-.28-.12-.71-.18-.79-.38-.08-.2.2-.54.32-.81Z"/>
  <path class="cls-4" d="M198.44,327.83c7.78-17.41,15.52-34.83,23.34-52.22,4.83-10.75,9.88-21.4,14.6-32.19,1.36-3.11,3.28-5.02,6.36-6.41,19.96-8.99,39.84-18.16,59.75-27.27,10.67-4.89,21.35-9.78,32.02-14.67.99-.33,1.98-.65,2.97-.98.34,3.28-2.49,3.68-4.45,4.51-3.39,1.43-5.93,3.37-6.96,7.1-.96,3.49-3.46,5.04-7,6.03-7.89,2.22-14.49,6.98-20.5,12.37-3.87,3.47-7.98,6.2-12.87,7.99-8.15,2.98-15.65,7.21-21.96,13.21-2.68,2.55-6.11,4.13-8.61,6.68-11.16,11.38-21.05,23.8-26.31,39.07-2.01,5.83-7.44,8.63-9.88,13.88-2.25,4.85-5.32,9.34-7.32,14.27-2.3,5.67-6.46,8.78-13.18,8.62Z"/>
  <path class="cls-1" d="M53.24,196.14c1.07-.34,2.29-1.16,3.19-.9,1.28.37-.03,1.68.2,2.56-1.13-.55-2.26-1.11-3.39-1.66Z"/>
  <path class="cls-4" d="M197.5,329.88c.03-.83.19-1.6.98-2.07.05.87-.1,1.64-.98,2.07Z"/>
  <path class="cls-4" d="M196.56,331.91c-.03-.85.21-1.56.95-2.05.02.84-.14,1.6-.95,2.05Z"/>
  <path class="cls-4" d="M195.62,333.9c.27-.5.54-1.01.81-1.51-.27.5-.54,1.01-.81,1.51Z"/>
</svg>