<svg id="Layer_1" data-name="Layer 1" xmlns="http://www.w3.org/2000/svg" viewBox="0 0 288.63 391.75"><title>Ben_Final</title><path d="M147.77,147c-7,7-12.5,14.5-13,24-.16,3.15,0,5.53,0,9.5s-2.84,8-2.79,11-.08,9.15-.08,9.15l-1.38,4.88-1,5.25,0,6.25,1.57,5.75L129.52,227l1.53,7-3.28,3.5-6.5,3h-3l-2.47-1.21-.92-2.37-.61-4.25-1.27-3.8.6-4.18.67-4.69-.91-3.86.58-3-.67-3.17-.17-3.83.5-2.84-1.33-4,1-4.66-1-3.67v-4.5L109.93,189l-2.16.85-1.17,2.67-2.86-.15-.64-.85.17-2.17-.15-4.38,1.32-2.12.16-2.83-.33-2.5-2.5-1.5-7.5,1-5,5-4,6-3,10v6.5l1.25,5.75,1.25,7.25.75,4.75L87.77,230l2.75,4.75,3.75,5.75,3.5,4.25,3.25,3.5.5,5.5,1,6,.75,6.75-4.75-6-4.75-5.25-3.75-6-4.25-8.5-1.75-7-3.75-10L79,215.25l-1.75-5.5,2.5-3-5,1.25s2.25-7.25,2-4.75,1.75-6.75,1.75-6.75l-1-5-1-7-.25-6.25-1.5-6-1.5-2.75V155.75h-2.5L73.52,152v-3.5l-2.75.75,1.75-4,1.75-4-.5-4-3,2.75,2.75-7-2.75,3.5v-6.25L72,125l2.75-3.5,1.5-3V113l-5.5,2.5V113l7.75-6.5-.5-4,.25-5.25,3.75-7H77.27L84,87.5l1.5-2.75,2.75-3.25-7.5,2.75-.25-2.75,11.75-3,4.5-2.25H88.52l1.25-2.5L101.52,72l1-2H84.27l6.25-3.5,2.5-3h6.25l.25-3H92.77l3.75-1.75H101l3.75-2L102,55.25l-2.5-2.75,9.75-2.5-2-2-1.5-4.25L117,50l5,4,.75-5-2-5.25h3.5L127,47.5l2-2.5-1.25-4-5-3.75L120.52,34l7.75,2.5,4.5,5.25,2,3.75,1.5-4.25-1.5-6L137,36l5.75.25.5-3.5,1.25-4,1-5.25,2.25,5.25,1.5-6.75a35.83,35.83,0,0,1,1.25,5c0,1,2.25,6.5,2.25,6.5l2.75-1.75V27l3.25-1.5,3.75-.25h6.75l5.25.5,3-3.75,3-5.5,3.75-4.5L182,18.25l.5,2.5,4-2.25V22l4.5-.75V23.5h5.25l5-.25L205,20.5l3.25-1.75L210,22l3-.25v-4l4.25,5,9,3.75,4.5,1.75,4.5.75,5,1.5,7,3.75,5,1.75,4.5,2,4,2.25L265.52,43l3,2.5,2.25,3.5,1.25.5v-3l-2.25-5.25L266.27,39l-.5-3.25,3.75,1.5L274.27,42l2.25,2.75V56l4.5,2,2-4,6.5-6.75,3.25-2.75v1.75L288,51l-4,5.25L282.77,60l3,2,7,4.5,1.5,5.25,1.75,3.5,3.25,4.25,5.25-2,7.25-4.25-6.5,6,9.25.5-9.25,2.5-3,1.5L304.52,86h7l3,1.75-2.75.25s-4.25.25-5,.25a5.48,5.48,0,0,0-2,.75l2,3.75,2,3.5.5,3.5-5-1.5V101l2,3.5,3,2.25,1.5,2.75-.5,2.25-5-2.75L302,107l1.25,4,2.5,3.5,4.75,4.25,4,4.75,2.25,2.75,1.5,4.75v4.25l-4.75-5-2.75-3,1,6,1.25,6,.75,4-.25,4.5-.75,6V159l-.5,2.25-1.25-1.5-.5,3.75-.25,4.25v4l-1,6.25-1,4.75L306.52,189l-2,2.65v6.85l-.5,3.75,1,2.25-.75,2.75.75,4.25V216l1.5,6.5V240l-1.25,5.92-3.5,2.58-1.75.75.75-12.5-.5-8,.75-5.5v-8.5l-.75-5.75-.25-4.75-.25-4.75.25-7.75,2.75-6,1.75-3.5.75-5.5v-7l1.25-5-.25-5.75L305,152.5l-1-5.75-1-4.25-1.25-4.75-1.5-4.75-1.5-5.75-1.25-4.5-1-3.5-1.75-6L292,110l-1-3-2.75,2.75-1.25,4-2.5.25-2.25-1,.5-3,2.75-4v-3l-1.25.25-2.75,3.5-1.25-4.25.5-5.5-1.5-1.5-7.75,3-2.75,1-2.75,4-2,4.5-.5,3.5h-2.75l-.5-5.25-2.5,3.25h-1.25v-5.25L258,100l-.25-3-2.5-2-2.5-1L251,98.75,247.27,102,243,105.5l-4.25.5-1.75.5.5-3.75,5-3-2-2.25-3.75,2.5-.25-2.75L240.27,94,239,88.75l-7.25-.25-2.5.25-1.5,3.75,2,2.75,2.5,3.25,1.25,2.75H232L229.77,99,226,96.75l-3-6,.5-2.75-2-2.25-5-2.25-5.25-2.75-2.75.5V85.5l3.5,3.25.25,2.25-3.75-.25-2-2.5L204.77,85,202,81l-4.25-.25.75,8L201,93l2.5,4.25,4.25,2.25,2.5,1.75,1.5,2.25.25,2-3.5.5-2.75-1-4-3.5L199,98.75,196,96l-3.25-3.5-1.5-.5-1.75,1.25H185l-2-1.5L179,90l-4-2.75L171.27,83l-3.75,3.75L164.77,86l-2.5-.75-2,1.75-2.5,4.25-2.5,1.25-.5,3.25-1.5,1.75.25,3.5.75,4,1.5,1.25.25,2.25-1.5,2.75V116l1,3.5.5,3v3.25l1.5,4,1,3.75v3l-3.5,4.25L151,145Z" transform="translate(-41.9 -12)"/><polygon points="189.38 155.25 187.63 154 186.13 152 183.13 152 183.13 150.75 179.63 150.75 179.63 148.5 177.63 148.5 177.63 147 175.38 147 173.38 147 171.38 145 169.63 143.75 166.88 143.75 163.63 142.5 161.13 142.5 159.38 142.5 156.38 144 153.63 142.5 149.38 145 146.63 145.5 143.63 146.75 140.88 147.5 137.13 148.88 134.38 150.25 132.13 152.25 127.38 155.25 123.63 156.75 120.13 158.5 118.38 158.5 118.38 155.75 120.88 153.75 124.88 150.5 127.63 148.75 130.88 147.5 134.13 144.75 134.63 142.5 136.88 140.25 138.38 138.75 140.13 138.75 143.13 136.5 145.88 134.5 148.38 132 151.13 132 155.38 132 159.63 132 162.13 132 164.88 132 167.63 132 171.13 134.5 173.88 137 176.38 137 179.63 137.5 183.38 139.5 185.63 141.5 187.13 141.75 190.63 143 190.63 145.25 192.63 147 194.63 148.25 197.88 149.25 197.88 150.75 196.38 152 195.38 153.25 193.63 154.75 191.63 154 189.38 155.25"/><path d="M225.1,184.92l-.25-.59-.66-.83-.42-1.5-.75-1.62-.83-2.38-1.5-1.42-1-1.16-1.5-1.59-1.75-1-2.17-1-2.33-.5-2.59-.83H207l-2.25-.5h-7.92l-1.66.5-1.84.42-1.58.58-1.58.67-1.67.58-1.86,1.6-1.58,2.5-2,1.82-.33,1.71-.67.79.5,1.58-.16-1,.41,2.58,1.83,1.4,1.25-.59,1.26-1.14,1.16-1.25.55-1.5L190,180l1-1,1.5-.88,2-.87.88.37-.88,1.63-1.37,1.37v5.63l1.37,1.31,1.25.75,1.44.69H207l.75-.88.63-.74.87-1.26.38-.74v-4l-.88-1.38-.75-1.38-1.12-.87-1.13-.75-1.37-.75.12-.75,2.25.25,1.38.13,2.75.62,1.5.88,1.5.87,2,.87.62,1,1,1.76,1.5,1.67.88.83-.13,1.12-.62.88-1.13.37-1.37.87-.13,1.38,2.38-.62,1.5-.26.87-1,1.63.26,1.5.62,1.5-.62v-1.8Zm-21.87-3.13-.58,1h-3.38l-.5-.63-.5-.87v-1.37l1-1.38.75-.5h.81l1.69.5.88,2.12Z" transform="translate(-41.9 -12)"/><path d="M296.85,190.33l-.83-.91-.5-.92-.83-.75-.92-.67-.67-.5-.91-.5L290.85,185l-1.16-.67-.84-.78h-5.91l-4.17.53-1.33.92h-1.17l-2.33.83-1.09,1H271.6l-1.33.59-1.33.58-1.25.67-.92.66-.75.92-.67,1-.83,1.25v1l1.5.71h.83l3.34,1.37.75.5,2.08.17,1.33.25.34,1.08.66.5,1.25.84.42.16,1.75.67h4.42l.91-.75.63-1,.87-.67.25-1,.42-1.25v-2.16l-.58-1.75-.84-.92-.66-.83-1-.75.08-.92,1.5-.25h2.17l1.25.5,1.33.83,1.08.59.84,1.25.91,1.5.42,1.08.58.92.84.25.83,1.16h1l1.17-.58v-3.35Zm-19,1.32v.68l-.41,1.09-1.09.75h-1.83v-.75l-.67-1.17v-.6l.5-1.9h2.75l.75.33Z" transform="translate(-41.9 -12)"/><polygon points="213.21 224.5 212.38 223.17 211.38 222.33 210.54 221.67 208.71 220.67 207.38 220.67 205.04 220.67 202.54 220.67 201.71 221.33 200.38 222.58 198.54 222.58 197.54 223.5 196.71 224.5 195.88 226.17 195.21 228 196.71 228.83 199.38 228.83 200.71 228.17 203.54 227.83 205.38 227.5 207.38 227 209.71 226.67 211.04 226.67 212.21 226.67 213.21 226 213.21 224.5"/><polyline points="162.54 264 164.88 263.17 167.54 263.17 169.38 263.17 172.38 263.17 175.21 263.17 177.54 263.17 179.38 262.33 180.88 261.5 183.71 261.5 187.21 260.17 189.21 260.17 191.54 260.17 193.71 259.17 195.21 259.17 197.88 259.17 198.71 259.17 201.21 260.17 202.54 260.33 204.21 260.5 206.88 260.67 208.38 260.5 209.54 260.33 211.54 260.83 213.21 261.58 215.04 263.17 216.38 264 217.21 265 218.54 265.83 220.04 265.83 221.71 267.33 224.04 268.17 224.76 268.62 225.38 270.5 224.29 271.33 223.13 271.83 220.65 271.83 217.96 271.33 215.21 270.67 213.29 270.58 210.88 270.67 208.54 270.67 206.04 270.67 202.54 270.67 199.71 270.67 197.04 270.67 195.21 269.5 193.04 268.5 191.21 267.83 187.04 267.5 184.04 267.17 180.54 267 177.71 266.5 174.38 266.33 170.54 265.67 167.38 266.33 164.54 265.83 163.21 266 161.54 266.5 160.38 266 160.38 264.92"/><polygon points="183.54 280.5 184.38 280.5 186.04 281.5 187.88 283.33 189.04 283.33 190.88 284.67 192.88 284.67 194.38 284.67 196.54 285.67 199.54 285.67 202.04 285.67 204.21 285.67 206.21 285.67 209.21 285.67 211.38 285.67 213.38 285.67 214.88 284.67 216.21 283.08 217.54 281.5 219.21 279.5 220.04 278 221.38 278 222.54 276.83 222.54 275 223.21 273.33 223.13 271.83 224.29 271.33 224.29 272.83 224.29 274.83 224.29 278.5 223.38 281.67 222.21 284.67 221.88 287 220.04 289 217.04 291.5 213.21 291.5 210.04 291.5 206.88 293.67 202.04 293.67 196.54 293.67 192.88 290.5 191.71 289 191.21 286.83 188.38 285.83 186.88 284.83 185.71 282.5 183.54 282.5 183.54 280.5"/><polygon points="61.38 254.5 62.88 259.17 62.88 267.33 62.88 271.83 61.38 282.5 61.38 288.33 59.88 296 58.21 301 58.21 306 55.88 311 53.21 318 50.54 321 45.88 325 45.88 330.67 49.88 334.67 53.38 338 62.88 346 68.88 354.67 76.21 359.13 84.54 368.33 92.88 367.67 98.54 363.25 107.54 363.25 114.88 363.25 119.74 362.28 135.07 363.62 143.54 369.75 152.63 369.75 161.5 369.75 173.54 375.67 184 375 195.21 378 201.54 375 209.21 371 217.21 365 221.63 358.5 224.29 356 227.46 346.72 227.46 336 225.88 329.67 224.29 326.33 227.38 319.83 225.38 318.27 222.38 320 219.04 322.83 215.88 325 210.88 329.33 206.54 331.67 202.21 334.33 197.88 334.33 192.88 334.33 190.54 333.67 190.21 330.67 190.54 327.33 187.54 326.67 186.21 329.67 183.54 331 179.54 331.67 170.88 331.67 167.21 329.67 158.94 325.67 152.63 322.67 149.88 322 145.54 321.33 137.88 318.5 129.54 314.33 123.88 311 118.38 308.5 111.38 304.75 103.38 299.5 97.63 295.5 89.88 290 81.38 283.75 74.38 275 69.88 267.67 66.21 261.33 61.05 251.55 61.38 254.5"/><path d="M300,249.25l.13,2.58.37,2.92V261l-1.25,5.5v12.25l-.75,5.08L297.19,287v3.5l-2.42,4-1.5,4.75-3,2-1.75,4.42L285,308v3l-4.17,2.25v4l-1.33,3.25s-1.08,1.75-1.67,2.5a36.63,36.63,0,0,0-2,5l-2,2.28-4.58,1.55-2-1.55-1.08.62,3.08-5.07,1.5-4.33v-3.17l3.17-3.66,2.33-6.5L272,303.75s-1.33-.66-1-1.5c.5-1.25,4.17-10.67,4.17-10.67l2.58,3.25,1.08.59,1.5.58,2.25-1.5h2.17l1.75-2.75,3.25-2.25,1-5.12.88-2.88,1.12-3.12.38-5.38.75-6.5.62-5.12,1.08-3.63.92-2.17.5-2.25.25-1.25.75-1.91,2.13-3Z" transform="translate(-41.9 -12)"/><polygon points="235.96 170.13 234.9 170.88 230.75 170.75 225.19 163.85 223.5 166 221.38 168.38 221.38 169.5 220.04 171.55 220.04 175 218.63 177.75 220.04 182.17 221.38 186.25 222.63 191.5 224.13 195.5 226.38 199.5 229.13 203.25 230.38 205.5 231.96 208 233.96 211.67 234.5 215 233.96 218 231.96 220.67 230.63 222.25 229.13 224 226.25 224.75 222.75 226.25 219.5 229.5 217.5 231.13 216 232.5 214 235.17 213.75 238.13 215.13 241.5 215.75 245.63 216.13 249.38 216.38 251.55 216.5 254.5 215.13 257 214.13 259.17 213.21 260.25 211.54 260.83 213.21 263 217.38 266 221.5 267.88 223.38 268.88 224.29 271.33 224.29 274.83 220.88 285.75 222.63 288.75 225.38 288.75 229.13 290.25 231.96 286.5 233.96 282.5 233.96 280.5 233.96 276.58 234.9 273.25 237.63 270 238.96 265.5 241.46 262.5 242.63 259.17 243.88 256 245.13 251.55 244.63 247.25 244.88 243 245.21 236.83 245.88 232.17 245.21 230 244.38 227.05 244.38 224.75 241.38 220.67 238.96 217 238.96 214.5 236.71 211.5 235.96 208 234.9 204.5 233.96 201.83 232.25 198.75 231.96 194.67 230.54 192.17 229.38 190 229.54 187 231.13 184.25 226.53 182.86 224.88 181.63 224.13 180.5 225.13 179.65 227.75 176.5 229.88 175.63 235.96 174.58 244.38 172.58 248.75 180.63 248.75 183.42 248.75 184.25 248.25 185.79 247.99 186.62 247.63 187.75 247.88 188.5 248.83 188.65 249.63 189.25 251.63 190.5 253.09 191.57 256.13 191.16 257.99 189.67 257.88 187.5 258.56 178.79 257 175 255.29 173.63 253.75 172.5 248.13 171.55 245.13 169.75 239.13 170.5 235.96 170.13"/><path d="M304.77,144v-9.33l-3-5V124l-2.67-3.33-1.91-2.34,1.91-.66-3.44-1.35-4.06-1.15-4.33-1.06-8-2.12-4.83-1.49L269.6,109,266,107.83l-6.4-.74-7.85-1.42L247.6,105l-14.5-1.33H194.52l-7.08,1.5-11.5.83-12.84,2-5.33.67-13,3.83-10,3.67s4,22.83,4.33,24.5,1.67,7,1.67,7l-.25,6.08,13-4.38,4.44-2,3.83-1.08,5-1.36,5-1.72,6.75-2.67,5.08-1.25,5.67-.92,5.25-.66H231.1l8.67.66,6.33,1,7.34.67,8.5.67,6.5,1.33,4.16.83,4.86,1.42,3.64.92,3.34,1.08,6,1.58,4.66,1.54,4.34,1.63,7.08,3.67V151ZM263,126.38l1.76,10-7.5-6.79-7.47,6.75,2.27-9.52-6.86-9.56,8.77,2.46,4.38-10.14,2.2,9.6,11.23,3.8Z" transform="translate(-41.9 -12)"/><polygon points="62.62 169.53 60.21 169.53 58.54 169.53 56.54 169.53 54.54 170.75 52.04 173 49.21 175.33 48.21 177 46.54 179.17 45.88 182 44.88 185.17 44.21 188.17 44.21 190.67 44.21 192.33 45.04 195.17 45.88 199.5 45.88 203.17 45.88 206.17 47.54 209.67 49.38 211.67 50.88 214 52.21 215.5 54.21 218.17 55.88 220.33 57.04 220.33 57.04 219 56.21 216.67 55.38 215.17 53.41 213.33 52.21 211.67 50.38 209.83 48.71 207.33 49.04 205.67 48.71 202.5 48.54 200.67 47.88 197 47.88 194.93 48.04 190.83 47.71 188.67 48.54 185.67 50.04 183.33 51.38 181 53.41 179.17 55.54 176.33 57.04 175.17 59.54 175.17 61.31 175.34 64.04 174.5 64.04 170.75 62.62 169.53"/><path d="M112.27,199.33h-2.33l-2.34.84-1.66.83-1.34,1.83-2.33,2.5H99.94l-1,2.67-1.5,1.33-.67,2.17L96,213l-.75,2.33.75,1.34,1.42,2.66,1.16,3.17,2,1.33,1.34,1.34,1.83.5h2.17l2.5,1.33h4.83l.19-1.35-1.69-1.15-3.83-.83a7,7,0,0,1-2-.34c-1-.33-1.57-2-1.57-2L102.1,220l-.5-1.5.67-3,1-1.17,1.67-1.16h2.16l2-1.67.34-1.67,1-1.83.33-1.07h1.17l1.16-.76,2.17.76v-4.6l-1.17-3Z" transform="translate(-41.9 -12)"/><polygon points="58.46 235.82 58.46 236.83 59.31 237.27 61.46 239.18 63.13 240.68 63.79 241.52 65.79 243.18 66.96 244.35 68.46 246.18 70.29 246.18 70.96 245.18 71.63 243.68 71.63 242.85 70.79 241.22 69.79 241.22 68.46 239.85 67.46 238.68 65.25 238.52 63.79 238.02 62.13 237.52 60.13 236.58 58.46 235.82"/><polygon points="225.38 162.75 226.88 161 229 160 229.92 158 231.96 156.13 233.38 153.63 235.05 152.5 236.63 151.5 238.13 149.38 240.88 148.75 241.63 147.25 245.13 147.25 246.88 145.25 248.63 145.25 252.38 145.25 254.88 143.75 257.13 143.75 258.88 145.25 261.13 147.5 262.63 150 264.63 152.75 264.29 157.65 264.13 161.33 263.96 165.17 263.71 169.08 262.88 170.67 261.98 171.55 261.38 168.5 260.4 167.86 259.38 165.5 258.56 163.85 257.13 162.13 255.29 160 252.54 159.17 250.38 160.38 249.13 161.25 247.5 161.63 245.63 162.5 242.75 163.85 238.96 164.5 236.5 164.5 233.96 164.63 231.96 167.5 230.75 170.75 228.94 169.46 227.15 168.22 225.38 167 224.13 163.75 225.38 162.75"/><polygon points="231.38 338 233.13 339.5 235.05 341.25 239.38 344 241.46 345.75 242.88 348 244.13 350 244.13 353.25 244.13 356 244.13 358.25 241.46 360.75 239.38 363.75 237.75 367.5 235.05 370.75 231.38 373.5 231.38 376.5 228.88 378.25 227.38 380.25 225.38 382.75 225.38 385 222.38 387 220.38 387 216.38 387 214.13 387 209.63 388.5 207.13 388.5 207.13 386.75 208.13 385 211.54 381.25 213.13 381 216.13 377.25 218.13 374.25 220.13 371.75 222.38 368.5 224.29 365.25 225.63 361.75 227.38 359 230.38 355.25 230.63 351 231.63 348 231.63 344.25 231.63 341.75 229.88 339.25 231.38 338"/><polygon points="248.88 347.75 252.88 349.75 256.63 351.25 261.38 354 263.88 356.25 266.88 357.5 268.63 357.5 274.13 361.75 276.38 364.5 280.63 364.5 284.88 366.75 286.88 368.5 288.63 371.75 288.63 374 285.63 375.5 281.88 375.5 278.63 378.5 273.63 381.5 270.88 381.5 266.63 381.5 262.63 381.5 260.13 385 255.88 385 252.38 385 248.88 386.75 247.13 388.5 247.13 390.5 244.13 391.75 239.38 391.75 233.13 391.75 230.63 388.5 233.13 386.25 235.05 384 238.13 381.75 241.46 379.5 247.88 377.5 248.63 374.75 250.63 369.75 250.38 365 250.13 360 250.13 355.25 248.38 352.75 245.88 350.25 246.13 347.75 248.88 347.75"/><polygon points="39.75 328.75 35.75 330.75 32 332.25 27.25 335 24.75 337.25 21.75 338.5 18.75 340.63 14.5 342.75 12.25 345.5 8 345.5 3.75 347.75 1.75 349.5 0 352.75 0 355 3 356.5 11.75 354.25 16 357 17.5 359 17.75 362.5 22 362.5 26 362.5 28.5 366 32.75 366 36.25 366 39.75 367.75 41.5 369.5 41.5 371.5 44.5 372.75 55.25 379.75 61.75 377.5 70.63 376.5 61.13 368.25 58.13 365.75 55.38 363.25 52.63 360.75 48.63 358 45.88 355.75 42.63 350.5 38.13 346.25 35.31 341.75 38.5 336.25 40.25 333.75 42.75 331.25 42.5 328.75 39.75 328.75"/></svg>