<?xml version="1.0" encoding="UTF-8"?>
<svg xmlns="http://www.w3.org/2000/svg" xmlns:xlink="http://www.w3.org/1999/xlink" version="1.1" viewBox="0 0 103.8 143.8">
  <defs>
    <style>
      .cls-1 {
        fill: none;
      }

      .cls-2 {
        fill: #010101;
      }

      .cls-3 {
        fill: #a61e22;
      }

      .cls-4 {
        fill: #fff;
      }

      .cls-5 {
        fill: #590e0e;
      }

      .cls-6 {
        fill: #9edbec;
      }

      .cls-7 {
        opacity: .3;
      }

      .cls-8 {
        clip-path: url(#clippath);
      }

      .cls-9 {
        fill: #cddc29;
      }

      .cls-10 {
        fill: #86a63e;
      }
    </style>
    <clipPath id="clippath">
      <path class="cls-1" d="M83.7,5.2l18.4,49.8s-22.2,3.4-46.4-10.6S24.6,12.2,24.6,12.2l59.1-7Z"/>
    </clipPath>
  </defs>
  <!-- Generator: Adobe Illustrator 28.6.0, SVG Export Plug-In . SVG Version: 1.2.0 Build 709)  -->
  <g>
    <g id="Layer_7">
      <path class="cls-3" d="M5.8,55.6s14.9,2.8,40.5,2.8c25.5,0,34.7-2.9,34.7-2.9,0,0-8-3.2-34.1-3-26.1.2-41.1,3.2-41.1,3.2Z"/>
      <g>
        <path class="cls-4" d="M28.8,87.4s15.9-22.8,21.7-30.1c3.8-5,33.3-48.1,33.3-48.1l-3.6-.9s-27.2,40.1-32.3,48.3c-5.1,8.2-19.2,30.9-19.2,30.9h0Z"/>
        <path class="cls-4" d="M29.7,88.1h0c.2-.2,16-22.8,21.7-30.1,3.8-5,32.2-46.4,33.4-48.2l.9-1.3-1.6-.4-3.6-.9-.8-.2-.5.7c-.3.4-27.3,40.2-32.3,48.3l-19.2,30.9,1.9,1.2h0ZM49,57.1c5-8.1,32-47.9,32.3-48.3l-1.2.5,3.6.9-.7-1.8c-.3.4-29.6,43.2-33.3,48.1-5.7,7.3-21.6,30-21.7,30.2l1.9,1.2,19.2-30.9h0Z"/>
      </g>
      <g class="cls-7">
        <path class="cls-5" d="M43.4,97.2c-6.7-.2-9.5-1.1-9.5-1.1-8.1-4.9-29.9-14-29.8-27.2,0-3.7.4-8.4,1.7-13.3,0,0,18.2,2.7,40.6,2.7,22.3,0,33.7-3,33.7-3,1.3,5,3,9.9,2.7,13.7-1,13.3-21.1,21.7-29.2,27.2,0,0-3.5,1.3-10.2,1.1h0Z"/>
      </g>
      <path class="cls-4" d="M44.6,140.9c-23.3,0-28.9,0-29.5-.1.6,0,1.2.6,1.2,1.4s-.6,1.4-1.2,1.4c0,0,.4,0,.6,0h.4s.1,0,.1,0c.9-.2,2.4-.4,4.2-.7,8.2-1.2,20.7-2.9,21.3-10h0c0-1.2,0-2.8,0-4.5.3-9.8.8-26.1-4.8-31.2-1.9-1.7-5.4-3.7-9.5-5.9-9.1-5-21.5-11.8-22.1-20.4-.9-12.2,10-37.3,12-39.2,0,0-.1.1-.4.2h-.4c.1,0,14.1.2,27.5.2h14.1c5.4-.2,10.6-.2,11.3-.2,0,0,0,0,0,0-.3,0-.4-.2-.4-.2,2,1.9,12.9,27,12,39.2-.7,8.6-13.1,15.4-22.2,20.4-4,2.2-7.5,4.1-9.5,5.9-5.5,5.1-5,21.4-4.8,31.2,0,1.7,0,3.2,0,4.4h0c.6,7.2,13.5,8.9,22,10.1,1.9.3,3.5.5,4.4.7h.1s.1,0,.1,0h.2c.1,0,.4,0,.5,0-.6,0-1.2-.6-1.2-1.4,0-.8.6-1.4,1.2-1.4-.6,0-6.3.1-30.2.1v2.9h2.3v-2.9h0ZM42.2,143.8c11.7,0,20.1,0,25,0h4.3c.4,0,.7,0,.9,0,1.5,0,1.6-1.2,1.6-1.4,0-1.4-1.4-1.5-2-1.5h-.2.3c-1-.2-2.7-.4-4.7-.7-6.2-.9-19.2-2.6-19.6-7.4h0c0-1,0-2.6,0-4.3-.3-8.7-.8-24.8,3.8-29,1.6-1.5,5-3.3,8.9-5.5,9.7-5.3,22.9-12.5,23.6-22.7.6-7.9-3.2-19.5-5.4-25.7-1.4-3.9-3.1-7.8-4.6-10.9-2.4-5.1-3.2-5.2-3.8-5.4-.6-.1-2.8-.1-11.9,0h-14.1c-13.4.2-27.3,0-27.4,0h-.4c-.6.2-1.3.4-3.8,5.4-1.5,3.1-3.1,7-4.6,10.9-2.3,6.2-6,17.8-5.4,25.7.8,10.2,14,17.4,23.6,22.7,3.9,2.1,7.2,4,8.9,5.5,4.6,4.2,4.1,20.3,3.8,29,0,1.8,0,3.3,0,4.5h0c-.4,4.7-12.9,6.4-18.9,7.3-2,.3-3.5.5-4.5.7h.3s-.3,0-.3,0c-.8,0-2.1.1-2.1,1.5,0,.2.1,1.4,1.6,1.4.2,0,.5,0,.9,0h4.3c4.8,0,13,0,24.4,0v-2.9h-2.3v2.9h0Z"/>
      <g>
        <g class="cls-8">
          <g>
            <g>
              <rect class="cls-1" x="15.7" y="-52.5" width="124.3" height="103.5"/>
              <rect class="cls-6" x="15.7" y="-52.5" width="124.3" height="103.5"/>
              <path class="cls-10" d="M100.6-2.8c0,6.9,41.2,4.6,9.9,35.3-31.3,30.7-27.3-10.3-33.9-10.3s-6.4,33.2-33.9,10.3C15.4,9.6,52.7,4.1,52.7-2.8s-36.1-9.7-9.9-35.3c26.2-25.6,27.3,10.3,33.9,10.3s5.6-31.5,33.9-10.3c28.3,21.2-9.9,28.4-9.9,35.3h0Z"/>
            </g>
            <g>
              <rect class="cls-1" x="15.7" y="51" width="124.3" height="103.5"/>
              <rect class="cls-6" x="15.7" y="51" width="124.3" height="103.5"/>
              <path class="cls-9" d="M100.6,100.7c0,6.9,41.2,4.6,9.9,35.3-31.3,30.7-27.3-10.3-33.9-10.3s-6.4,33.2-33.9,10.3c-27.4-22.9,9.9-28.4,9.9-35.3s-36.1-9.7-9.9-35.3c26.2-25.6,27.3,10.3,33.9,10.3s5.6-31.5,33.9-10.3c28.3,21.2-9.9,28.4-9.9,35.3Z"/>
            </g>
          </g>
        </g>
        <path class="cls-2" d="M82.7,5.6l18.4,49.8.9-1.5c-.2,0-22.2,3.2-45.7-10.5-23.5-13.6-30.6-31.4-30.7-31.6l-.9,1.5,59.1-7-1.2-.7h0ZM23.5,12.6c.3.8,7.4,18.8,31.6,32.8,12.6,7.3,24.8,9.8,32.7,10.7,8.6.9,14.2,0,14.4,0l1.4-.2-.5-1.3L84.8,4.8l-.3-.8h-.9c0,.1-59.1,7.1-59.1,7.1l-1.5.2.5,1.4h0Z"/>
      </g>
      <path class="cls-4" d="M84.8,7.4c.2.5,21.6,51.4,21.6,51.5-.2.4-3.6.4-3.9,0S84.2,7.6,84.2,7.6c0,0,.6-.2.6-.2Z"/>
      <path class="cls-4" d="M84,6.7c.2-.5-16.2,54.1-15.6,53.9-.6.2-5.5-1-5.5-1.5S83.2,6.4,83.2,6.4l.9.2h0Z"/>
      <path class="cls-4" d="M83.8,5.3s-50.2,28.5-50.3,29.1c0,.6,2.2,4.2,2.6,4.1.5-.1,48.1-32.4,48.1-32.4l-.4-.7h0Z"/>
      <path class="cls-4" d="M79.9,5.7s-61,5.6-61.3,6.2c-.3.5.3,3.8.8,3.8.5,0,60.7-9.2,60.7-9.2,0,0,0-.8,0-.8Z"/>
    </g>
  </g>
</svg>