<?xml version="1.0" encoding="UTF-8"?>
<svg width="250px" height="250px" id="Layer_7" data-name="Layer 7" xmlns="http://www.w3.org/2000/svg" xmlns:xlink="http://www.w3.org/1999/xlink" version="1.1" viewBox="0 0 331.85 145.08">
  <defs>
    <style>
      .cls-1 {
        fill: #010101;
      }

      .cls-1, .cls-2, .cls-3, .cls-4, .cls-5, .cls-6, .cls-7, .cls-8, .cls-9, .cls-10, .cls-11 {
        stroke-width: 0px;
      }

      .cls-12 {
        clip-path: url(#clippath);
      }

      .cls-2 {
        fill: none;
      }

      .cls-3 {
        fill: #86a63e;
      }

      .cls-4 {
        fill: #da6a88;
      }

      .cls-5 {
        fill: #5b3d16;
      }

      .cls-6 {
        fill: #000;
      }

      .cls-7 {
        fill: #231f20;
      }

      .cls-8 {
        fill: #9edbec;
      }

      .cls-9 {
        fill: #a61e22;
      }

      .cls-13 {
        opacity: .32;
      }

      .cls-14 {
        opacity: .85;
      }

      .cls-10 {
        fill: #590e0e;
      }

      .cls-11 {
        fill: #cddc29;
      }
    </style>
    <clipPath id="clippath">
      <path class="cls-2" d="M86.31,3.83l18.44,49.77s-22.25,3.39-46.41-10.59C34.18,29.03,27.19,10.82,27.19,10.82l59.12-6.99Z"/>
    </clipPath>
  </defs>
  <g class="cls-14">
    <path class="cls-4" d="M100.04,113.14c1.59,0,2.87.05,2.87,2,0,.82-.15,4.47-.15,5.24,0,2.41.05,4.93.21,6.93.05.56.36,2.98.36,3.44,0,1.64-1.54,2.46-2.46,2.93-6.62,3.29-13.45,3.39-15.55,3.39-13.86,0-23.05-6.77-23.05-21.4,0-7.55,2.26-13.91,9.03-17.81,4-2.31,8.67-3.03,13.24-3.03,3.18,0,5.8.51,8.88,1.18.72.15,1.54.31,1.69.31.98,0,.87-1.28,2.62-1.28,2.57,0,2.62,1.54,2.72,3.34,0,.62.36,4.05,2.21,8.62.05.21.36.98.36,1.49,0,.82-.77,1.9-1.8,1.9s-4.11-1.23-5.34-1.49c-2.93-.62-5.9-1.28-8.88-1.28-5.59,0-8.78,2.72-8.78,8.47,0,4.26,1.8,7.75,6.47,7.75.77,0,4.57,0,4.57-3.85,0-2.05-.72-2.36-2.72-3.23-.98-.41-.98-1.49-.98-1.64,0-1.95,1.39-1.95,3.29-1.95h11.19Z"/>
    <path class="cls-4" d="M124.01,102.46c11.14,0,18.38,6.16,18.38,17.3s-7.39,17.45-18.43,17.45-18.43-6.01-18.43-17.4,7.44-17.35,18.43-17.35h.05ZM123.86,113.6c-2.72,0-3.13,4.21-3.13,6.16,0,2.1.41,5.8,3.29,5.8s3.18-3.9,3.18-6c0-2.21-.31-5.95-3.28-5.95h-.05Z"/>
    <path class="cls-4" d="M160.15,119.35c0,2.72,0,5.34,2.46,5.34,1.23,0,1.95-.82,1.95-2,0-.31-.1-1.59-.1-1.85l.05-8.52c0-3.59-.1-3.7-.67-4.62-.77-1.23-.87-1.44-.87-2.16,0-.46.1-2.16,2.1-2.16,1.64,0,4.41.36,6.88.36,2.16,0,3.8-.36,5.03-.36,2.21,0,2.21,1.44,2.21,3.59v20.38c0,3.59.05,3.64.67,4.62.77,1.23.87,1.44.87,2.21,0,.62-.31,2.1-2.1,2.1-1.69,0-4-.36-6.26-.36-1.44,0-3.49.36-4.72.36-1.64,0-1.85-.87-2.1-2.16-.21-.98-.21-1.08-.51-1.08-.15,0-.56.41-1.03.82-2.26,2-4.93,2.87-8.11,2.87-7.8,0-10.68-5.65-10.68-12.63,0-1.64.41-8.88.41-10.37,0-4.98-.15-5.24-.67-6.06-.77-1.18-.92-1.39-.92-2.16,0-.41.1-2.16,2.16-2.16,1.59,0,4.46.36,6.93.36,2.05,0,4-.36,4.82-.36,2,0,2.21,1.33,2.21,3.59v12.37Z"/>
    <path class="cls-4" d="M203.57,103.34c1.03,0,2.87,0,2.87,2.26,0,1.18-.31,2.72-.31,6.36,0,1.28.21,2.52.31,3.8,0,.62-.41,1.75-1.69,1.75-.46,0-2.1-.26-2.57-.26-1.64,0-2.93,1.23-2.93,2.87,0,1.08.46,1.85.46,4.57v2.67c0,3.54.21,3.85.67,4.62.77,1.23.87,1.44.87,2.21,0,.56-.26,2.1-2.05,2.1-1.18,0-3.75-.36-6.88-.36-3.29,0-5.85.36-7.24.36-1.9,0-2.1-1.59-2.1-2.16,0-.72.1-.92.87-2.16.56-.92.67-1.49.67-4.62v-15.04c0-3.34-.05-3.75-.67-4.62-.77-1.08-.87-1.49-.87-2.16,0-.41.05-2.16,2.1-2.16.87,0,4.72.36,5.49.36,2.57,0,3.49-.36,4.16-.36.41,0,1.13.05,1.44,1.13.36,1.18.41,1.33.77,1.33.31,0,.46,0,1.34-.72,1.49-1.23,3.34-1.8,5.24-1.8h.05Z"/>
    <path class="cls-4" d="M228.77,119.04c0-1.85,0-4.47-2.67-4.47-1.28,0-2.1.77-2.1,1.85,0,.82.15,1.74.15,4.41v6.52c0,3.54.15,3.85.67,4.62.72,1.13.87,1.39.87,2.21,0,.72-.36,2.1-2.05,2.1-1.33,0-3.7-.36-6.57-.36-2.52,0-4.88.36-6.78.36-1.8,0-2.16-1.33-2.16-2.16,0-.72.1-.92.87-2.16.56-.92.67-1.49.67-4.62v-15.04c0-3.34-.1-3.7-.67-4.62-.77-1.18-.87-1.39-.87-2.16,0-.46.1-2.16,2.1-2.16,1.33,0,4.05.36,6.21.36,1.49,0,2.98-.36,3.9-.36,1.39,0,1.69,1.08,1.8,1.9.05,1.03.1,1.44.62,1.44.36,0,.41-.05,1.28-.92,2.31-2.31,4.67-3.18,8.26-3.18,5.13,0,6.83,2.05,7.75,3.13.62.72,1.03,1.23,1.34,1.23.21,0,.36-.21,1.08-.98,2.87-3.08,5.75-3.39,8.32-3.39,9.55,0,11.55,7.03,11.55,15.14v9.6c0,3.59.05,3.7.67,4.62.77,1.23.87,1.44.87,2.21,0,.67-.31,2.1-2.1,2.1-1.23,0-4.31-.36-6.47-.36-1.59,0-3.7.36-5.08.36-2.36,0-2.36-1.54-2.36-5.08v-11.7c0-2.16,0-4.93-2.72-4.93-.82,0-2.16.41-2.16,1.9,0,.46.26,2.41.26,3.18v7.7c0,3.59.05,3.64.67,4.62.77,1.23.87,1.44.87,2.21,0,.62-.31,2.1-2.1,2.1-.72,0-3.85-.36-6.47-.36-1.69,0-3.85.36-5.13.36-2.31,0-2.31-1.54-2.31-5.08v-12.16Z"/>
    <path class="cls-4" d="M282.31,122.63c-1.13,0-1.59,0-1.59.67,0,2.77,4.52,3.08,6.36,3.08,2.51,0,4.16-.15,7.29-.77,1.03-.21,2.67-.62,3.13-.62,1.03,0,1.49.82,1.49,1.33,0,.41-.36,1.54-.82,3.03-.41,1.33-.67,3.13-.97,4.67-.21,1.08-.72,1.59-2.52,2-1.49.36-5.65,1.03-9.85,1.03-11.24,0-19.3-5.03-19.3-17.14,0-9.34,5.03-17.3,17.86-17.3,10.73,0,16.89,5.75,16.89,16.63,0,2.72-.67,3.39-2.51,3.39h-15.45ZM285.08,116.94c1.69,0,2.05-.31,2.05-1.13,0-2.05-1.28-3.39-3.34-3.39s-3.39,1.44-3.39,3.44c0,.72.21,1.08,1.54,1.08h3.13Z"/>
    <path class="cls-4" d="M329.01,105.54c0,.87-.51,3.95-2.67,8.83-.77,1.74-1.85,3.9-3.13,6.31-.41.77-.72,1.49-.72,2.1,0,.87.87,1.39,1.69,1.39,1.39,0,1.85-1.18,3.44-1.18.97,0,1.95.51,1.95,1.39,0,.56-.72,2.62-.82,2.98-.56,1.75-.97,3.9-1.39,5.85-.31,1.54-.67,3.08-3.34,3.08-1.33,0-5.03-.36-11.04-.36-5.03,0-7.75.36-9.29.36s-2.26-1.08-2.26-2c0-1.69,2.41-8.88,6.21-15.04,1.44-2.31,1.54-2.72,1.54-3.28,0-.77-.82-1.18-1.49-1.18-1.18,0-1.64,1.08-2.93,1.08-1.08,0-2.05-.46-2.05-1.69,0-.67.51-1.95,1.13-4.26.56-2.1.87-3.75,1.03-4.67.21-1.28,1.23-1.85,2.93-1.85,1.28,0,5.03.36,12.42.36,2.87,0,4.93-.36,6.62-.36,1.18,0,2.16.72,2.16,2.1v.05Z"/>
  </g>
  <path class="cls-9" d="M8.4,54.31s14.93,2.84,40.48,2.75c25.54-.09,34.68-2.94,34.68-2.94,0,0-7.96-3.23-34.09-3.04-26.13.19-41.07,3.23-41.07,3.23Z"/>
  <g>
    <path class="cls-5" d="M31.38,86.08s15.9-22.79,21.7-30.14c3.78-4.99,33.34-48.11,33.34-48.11l-3.57-.95s-27.19,40.12-32.29,48.3c-5.11,8.18-19.17,30.89-19.17,30.89Z"/>
    <path class="cls-1" d="M32.32,86.74h0c.16-.23,15.95-22.85,21.66-30.08,3.77-4.97,32.18-46.41,33.38-48.17l.91-1.33-1.56-.41-3.57-.95-.78-.21-.46.67c-.27.4-27.26,40.23-32.32,48.33l-19.18,30.9,1.9,1.25ZM51.53,55.79c5.04-8.07,32-47.86,32.27-48.26l-1.24.46,3.57.95-.65-1.75c-.29.43-29.59,43.15-33.31,48.06-5.74,7.27-21.56,29.95-21.72,30.17l1.9,1.25,19.17-30.89Z"/>
  </g>
  <g class="cls-13">
    <path class="cls-10" d="M46.02,95.89c-6.69-.19-9.5-1.14-9.5-1.14-8.1-4.9-29.91-14.02-29.75-27.18.05-3.7.44-8.43,1.66-13.35,0,0,18.25,2.66,40.57,2.68,22.31.02,33.71-2.99,33.71-2.99,1.27,5.03,3.01,9.89,2.73,13.66-.99,13.31-21.07,21.72-29.25,27.18,0,0-3.47,1.33-10.16,1.14Z"/>
  </g>
  <path class="cls-7" d="M47.13,139.57c-23.34,0-28.92-.06-29.49-.11.59.05,1.23.6,1.23,1.4,0,.8-.63,1.35-1.21,1.41.09,0,.42-.02.59-.03h.3s.14-.02.14-.02c-.01,0,.12-.03.12-.03.88-.22,2.44-.43,4.25-.69,8.24-1.16,20.7-2.91,21.34-9.98v-.06s0-.06,0-.06c0-1.13.05-2.63.1-4.38.29-9.76.78-26.1-4.75-31.18-1.9-1.74-5.4-3.65-9.45-5.87-9.07-4.96-21.5-11.76-22.15-20.37-.92-12.2,10.02-37.29,12.03-39.21,0,0-.14.13-.41.2l-.37.04c.14,0,14.05.17,27.48.12l14.09-.12c5.44-.06,10.58-.12,11.26-.03,0,0-.03,0-.08-.02-.27-.07-.41-.2-.41-.2,2.01,1.92,12.95,27.01,12.03,39.21-.65,8.61-13.08,15.41-22.15,20.37-4.05,2.22-7.55,4.13-9.45,5.87-5.54,5.08-5.05,21.42-4.75,31.18.05,1.74.1,3.25.1,4.38v.13c.64,7.05,13.52,8.8,22.05,9.97,1.9.26,3.53.48,4.43.7l.13.03s.13,0,.13,0h.22c.14.02.42.03.49.04-.59-.06-1.22-.62-1.21-1.41,0-.8.64-1.35,1.23-1.4-.58.05-6.3.12-30.2.12v2.85h2.34v-2.85ZM44.79,142.42c11.67,0,20.09-.01,25.02-.04l4.33-.04c.4,0,.68-.02.88-.02,1.49-.07,1.59-1.19,1.59-1.42.03-1.41-1.4-1.47-2-1.5h-.2s.26.03.26.03c-1.04-.25-2.66-.48-4.72-.76-6.22-.85-19.16-2.61-19.59-7.4v.13c0-1.17-.04-2.7-.09-4.46-.26-8.66-.75-24.79,3.83-28.99,1.64-1.51,5-3.34,8.89-5.47,9.65-5.28,22.86-12.5,23.62-22.66.59-7.88-3.15-19.47-5.42-25.67-1.45-3.93-3.07-7.81-4.57-10.91-2.45-5.06-3.18-5.25-3.76-5.4-.6-.15-2.8-.15-11.92-.05l-14.07.12c-13.41.05-27.3-.12-27.44-.12h-.19s-.18.04-.18.04c-.58.15-1.3.33-3.76,5.4-1.5,3.1-3.13,6.98-4.57,10.91-2.28,6.21-6.02,17.8-5.43,25.67.76,10.16,13.98,17.38,23.62,22.66,3.89,2.13,7.24,3.96,8.89,5.47,4.58,4.2,4.09,20.33,3.83,28.99-.05,1.77-.1,3.29-.1,4.46v-.13c-.42,4.81-12.89,6.57-18.89,7.41-1.96.28-3.5.49-4.52.74l.27-.04h-.27c-.75.04-2.14.1-2.11,1.51,0,.23.1,1.35,1.6,1.42.19,0,.48.02.87.02l4.27.04c4.82.03,13.01.04,24.37.04v-2.85h-2.34v2.85Z"/>
  <g>
    <path class="cls-6" d="M98.17,111.26c1.59,0,2.87.05,2.87,2,0,.82-.15,4.47-.15,5.24,0,2.41.05,4.93.21,6.93.05.56.36,2.98.36,3.44,0,1.64-1.54,2.46-2.46,2.93-6.62,3.29-13.45,3.39-15.55,3.39-13.86,0-23.05-6.77-23.05-21.4,0-7.55,2.26-13.91,9.03-17.81,4-2.31,8.67-3.03,13.24-3.03,3.18,0,5.8.51,8.88,1.18.72.15,1.54.31,1.69.31.98,0,.87-1.28,2.62-1.28,2.57,0,2.62,1.54,2.72,3.34,0,.62.36,4.05,2.21,8.62.05.21.36.98.36,1.49,0,.82-.77,1.9-1.8,1.9s-4.11-1.23-5.34-1.49c-2.93-.62-5.9-1.28-8.88-1.28-5.59,0-8.78,2.72-8.78,8.47,0,4.26,1.8,7.75,6.47,7.75.77,0,4.57,0,4.57-3.85,0-2.05-.72-2.36-2.72-3.23-.98-.41-.98-1.49-.98-1.64,0-1.95,1.39-1.95,3.28-1.95h11.19Z"/>
    <path class="cls-6" d="M122.14,100.59c11.14,0,18.38,6.16,18.38,17.3s-7.39,17.45-18.43,17.45-18.43-6.01-18.43-17.4,7.44-17.35,18.43-17.35h.05ZM121.98,111.73c-2.72,0-3.13,4.21-3.13,6.16,0,2.1.41,5.8,3.29,5.8s3.18-3.9,3.18-6c0-2.21-.31-5.95-3.28-5.95h-.05Z"/>
    <path class="cls-6" d="M158.27,117.47c0,2.72,0,5.34,2.46,5.34,1.23,0,1.95-.82,1.95-2,0-.31-.1-1.59-.1-1.85l.05-8.52c0-3.59-.1-3.7-.67-4.62-.77-1.23-.87-1.44-.87-2.16,0-.46.1-2.16,2.1-2.16,1.64,0,4.41.36,6.88.36,2.16,0,3.8-.36,5.03-.36,2.21,0,2.21,1.44,2.21,3.59v20.38c0,3.59.05,3.64.67,4.62.77,1.23.87,1.44.87,2.21,0,.62-.31,2.1-2.1,2.1-1.69,0-4-.36-6.26-.36-1.44,0-3.49.36-4.72.36-1.64,0-1.85-.87-2.1-2.16-.21-.98-.21-1.08-.51-1.08-.15,0-.56.41-1.03.82-2.26,2-4.93,2.87-8.11,2.87-7.8,0-10.68-5.65-10.68-12.63,0-1.64.41-8.88.41-10.37,0-4.98-.15-5.24-.67-6.06-.77-1.18-.92-1.39-.92-2.16,0-.41.1-2.16,2.16-2.16,1.59,0,4.46.36,6.93.36,2.05,0,4-.36,4.82-.36,2,0,2.21,1.33,2.21,3.59v12.37Z"/>
    <path class="cls-6" d="M201.7,101.46c1.03,0,2.87,0,2.87,2.26,0,1.18-.31,2.72-.31,6.36,0,1.28.21,2.52.31,3.8,0,.62-.41,1.75-1.69,1.75-.46,0-2.1-.26-2.57-.26-1.64,0-2.93,1.23-2.93,2.87,0,1.08.46,1.85.46,4.57v2.67c0,3.54.21,3.85.67,4.62.77,1.23.87,1.44.87,2.21,0,.56-.26,2.1-2.05,2.1-1.18,0-3.75-.36-6.88-.36-3.29,0-5.85.36-7.24.36-1.9,0-2.1-1.59-2.1-2.16,0-.72.1-.92.87-2.16.56-.92.67-1.49.67-4.62v-15.04c0-3.34-.05-3.75-.67-4.62-.77-1.08-.87-1.49-.87-2.16,0-.41.05-2.16,2.1-2.16.87,0,4.72.36,5.49.36,2.57,0,3.49-.36,4.16-.36.41,0,1.13.05,1.44,1.13.36,1.18.41,1.33.77,1.33.31,0,.46,0,1.34-.72,1.49-1.23,3.34-1.8,5.24-1.8h.05Z"/>
    <path class="cls-6" d="M226.9,117.17c0-1.85,0-4.47-2.67-4.47-1.28,0-2.1.77-2.1,1.85,0,.82.15,1.74.15,4.41v6.52c0,3.54.15,3.85.67,4.62.72,1.13.87,1.39.87,2.21,0,.72-.36,2.1-2.05,2.1-1.34,0-3.7-.36-6.57-.36-2.52,0-4.88.36-6.78.36-1.8,0-2.16-1.33-2.16-2.16,0-.72.1-.92.87-2.16.56-.92.67-1.49.67-4.62v-15.04c0-3.34-.1-3.7-.67-4.62-.77-1.18-.87-1.39-.87-2.16,0-.46.1-2.16,2.1-2.16,1.33,0,4.05.36,6.21.36,1.49,0,2.98-.36,3.9-.36,1.39,0,1.69,1.08,1.8,1.9.05,1.03.1,1.44.62,1.44.36,0,.41-.05,1.28-.92,2.31-2.31,4.67-3.18,8.26-3.18,5.13,0,6.83,2.05,7.75,3.13.62.72,1.03,1.23,1.34,1.23.21,0,.36-.21,1.08-.98,2.87-3.08,5.75-3.39,8.32-3.39,9.55,0,11.55,7.03,11.55,15.14v9.6c0,3.59.05,3.7.67,4.62.77,1.23.87,1.44.87,2.21,0,.67-.31,2.1-2.1,2.1-1.23,0-4.31-.36-6.47-.36-1.59,0-3.7.36-5.08.36-2.36,0-2.36-1.54-2.36-5.08v-11.7c0-2.16,0-4.93-2.72-4.93-.82,0-2.16.41-2.16,1.9,0,.46.26,2.41.26,3.18v7.7c0,3.59.05,3.64.67,4.62.77,1.23.87,1.44.87,2.21,0,.62-.31,2.1-2.1,2.1-.72,0-3.85-.36-6.47-.36-1.69,0-3.85.36-5.13.36-2.31,0-2.31-1.54-2.31-5.08v-12.16Z"/>
    <path class="cls-6" d="M280.43,120.76c-1.13,0-1.59,0-1.59.67,0,2.77,4.52,3.08,6.37,3.08,2.51,0,4.16-.15,7.29-.77,1.03-.21,2.67-.62,3.13-.62,1.03,0,1.49.82,1.49,1.33,0,.41-.36,1.54-.82,3.03-.41,1.33-.67,3.13-.97,4.67-.21,1.08-.72,1.59-2.52,2-1.49.36-5.65,1.03-9.85,1.03-11.24,0-19.3-5.03-19.3-17.14,0-9.34,5.03-17.3,17.86-17.3,10.73,0,16.89,5.75,16.89,16.63,0,2.72-.67,3.39-2.51,3.39h-15.45ZM283.2,115.06c1.69,0,2.05-.31,2.05-1.13,0-2.05-1.28-3.39-3.34-3.39s-3.39,1.44-3.39,3.44c0,.72.21,1.08,1.54,1.08h3.13Z"/>
    <path class="cls-6" d="M327.14,103.67c0,.87-.51,3.95-2.67,8.83-.77,1.75-1.85,3.9-3.13,6.31-.41.77-.72,1.49-.72,2.1,0,.87.87,1.39,1.69,1.39,1.39,0,1.85-1.18,3.44-1.18.97,0,1.95.51,1.95,1.39,0,.56-.72,2.62-.82,2.98-.56,1.75-.97,3.9-1.39,5.85-.31,1.54-.67,3.08-3.34,3.08-1.33,0-5.03-.36-11.04-.36-5.03,0-7.75.36-9.29.36s-2.26-1.08-2.26-2c0-1.69,2.41-8.88,6.21-15.04,1.44-2.31,1.54-2.72,1.54-3.28,0-.77-.82-1.18-1.49-1.18-1.18,0-1.64,1.08-2.93,1.08-1.08,0-2.05-.46-2.05-1.69,0-.67.51-1.95,1.13-4.26.57-2.1.87-3.75,1.03-4.67.21-1.28,1.23-1.85,2.93-1.85,1.28,0,5.03.36,12.42.36,2.87,0,4.93-.36,6.62-.36,1.18,0,2.16.72,2.16,2.1v.05Z"/>
  </g>
  <g>
    <g class="cls-12">
      <g>
        <rect class="cls-2" x="18.23" y="-53.86" width="124.33" height="103.51"/>
        <rect class="cls-8" x="18.23" y="-53.86" width="124.33" height="103.51"/>
        <path class="cls-3" d="M103.21-4.1c0,6.89,41.23,4.56,9.92,35.29-31.31,30.73-27.26-10.33-33.87-10.33s-6.44,33.22-33.87,10.33C17.95,8.3,55.3,2.79,55.3-4.1s-36.1-9.69-9.92-35.29c26.17-25.59,27.26,10.34,33.87,10.34s5.58-31.51,33.87-10.34c28.29,21.17-9.92,28.4-9.92,35.29Z"/>
      </g>
      <g>
        <rect class="cls-2" x="18.23" y="49.65" width="124.33" height="103.51"/>
        <rect class="cls-8" x="18.23" y="49.65" width="124.33" height="103.51"/>
        <path class="cls-11" d="M103.21,99.41c0,6.89,41.23,4.56,9.92,35.29-31.31,30.73-27.26-10.33-33.87-10.33s-6.44,33.22-33.87,10.33c-27.43-22.88,9.92-28.4,9.92-35.29s-36.1-9.69-9.92-35.29c26.17-25.59,27.26,10.34,33.87,10.34s5.58-31.51,33.87-10.34c28.29,21.17-9.92,28.4-9.92,35.29Z"/>
      </g>
    </g>
    <path class="cls-1" d="M85.24,4.23l18.44,49.77.9-1.52c-.22.03-22.17,3.15-45.67-10.45-23.49-13.59-30.59-31.43-30.66-31.61l-.93,1.54,59.13-6.99-1.2-.74ZM26.12,11.23c.29.76,7.42,18.75,31.65,32.77,12.65,7.32,24.78,9.85,32.72,10.68,8.63.91,14.2.08,14.44.05l1.38-.21-.49-1.31L87.38,3.44l-.31-.84-.89.11-59.12,6.99-1.46.17.53,1.37Z"/>
  </g>
  <path class="cls-6" d="M87.41,6.1c.22.53,21.63,51.43,21.57,51.55-.23.43-3.62.43-3.87.05-.25-.38-18.29-51.39-18.29-51.39l.59-.21Z"/>
  <path class="cls-6" d="M86.61,5.33c.16-.49-16.2,54.12-15.59,53.94-.63.18-5.5-.98-5.46-1.45.04-.47,20.18-52.72,20.18-52.72l.86.23Z"/>
  <path class="cls-6" d="M86.39,3.99s-50.24,28.48-50.3,29.1c-.07.62,2.15,4.22,2.61,4.07.47-.14,48.08-32.44,48.08-32.44l-.4-.74Z"/>
  <path class="cls-6" d="M82.5,4.33s-61.02,5.63-61.33,6.16c-.31.53.26,3.78.77,3.84.52.06,60.66-9.19,60.66-9.19l-.1-.81Z"/>
  <g>
    <path class="cls-4" d="M116.15,88.43c0,.89.16,1.88,1.26,1.89.45,0,1.82-.44,2.26-.44.68,0,1.23.48,1.23,1,0,.38-.24,1.09-.42,1.95-.25,1.2-.46,2.6-.53,3.97-.04.58-.11,1.23-1.17,1.6-1.27.44-3.15.6-4.48.6-4.96-.02-8.24-2.02-8.21-7.29,0-.89.3-4.72.3-5.47,0-1.13-.13-1.68-.64-1.68-.21,0-.72.1-.82.1-.27,0-.92-.17-.92-1.13,0-.68.15-1.81.15-2.81,0-.92-.13-1.81-.12-2.74,0-1.13,1-1.19,1.2-1.19.21,0,1.13.07,1.5.08,2.94.01,5.08-2.54,6.9-4.55.52-.55.89-.92,1.27-.92,1.3,0,1.33.79,1.33,1.17v3.05c-.02.89.08,1.44.9,1.44.27,0,1.44-.13,1.68-.13.89,0,1.33.52,1.33,1.31,0,.38-.11,2.05-.11,2.39,0,.44.09,2.47.09,2.88,0,.38-.04,1.44-1.24,1.43-.31,0-1.4-.21-1.71-.21-.96,0-1,.78-1,1.26v2.46Z"/>
    <path class="cls-4" d="M135.93,87.01c0-1.16.12-2.74-1.43-2.75-1.61,0-1.65,1.5-1.66,2.83l-.03,5.51c-.01,2.36.13,2.57.43,3.08.44.75.58.93.57,1.47,0,.48-.25,1.4-1.37,1.4-.65,0-2.63-.25-4.38-.26-1.61,0-3.25.22-4.59.22-1.23,0-1.36-1.07-1.36-1.44,0-.48.07-.61.59-1.43.38-.61.45-.99.46-3.08l.07-15.23c.01-2.4-.06-2.43-.43-3.05-.51-.82-.58-.96-.57-1.47,0-1.2.86-1.43,1.51-1.43,1.57,0,3.04.25,4.38.26,1.44,0,2.81-.23,3.73-.22,1.09,0,1.3.9,1.29,1.2,0,.27-.25,2.15-.25,2.63v1.74c-.01.41-.01,1.13.47,1.13.27,0,.82-.48,1.68-.92.86-.44,2.06-.88,3.46-.87,5.06.02,7.1,3.35,7.08,8.24l-.04,8.08c-.01,2.33.02,2.43.43,3.08.51.82.58.96.57,1.47,0,.38-.18,1.4-1.37,1.4-.86,0-2.91-.25-4.35-.26-1.13,0-2.29.23-3.42.22-1.54,0-1.54-1.03-1.52-3.39l.04-8.18Z"/>
    <path class="cls-4" d="M158.88,89.58c-.75,0-1.06,0-1.06.44,0,1.85,3,2.07,4.23,2.07,1.68,0,2.77-.09,4.86-.49.69-.13,1.78-.4,2.09-.4.68,0,.99.55.99.89,0,.27-.24,1.02-.56,2.02-.28.89-.45,2.08-.66,3.11-.14.72-.48,1.06-1.68,1.33-.99.23-3.77.67-6.57.65-7.49-.03-12.85-3.41-12.81-11.49.03-6.23,3.41-11.52,11.96-11.48,7.15.03,11.24,3.88,11.21,11.14,0,1.81-.45,2.26-1.69,2.25l-10.3-.05ZM160.75,85.79c1.13,0,1.37-.2,1.37-.75,0-1.37-.84-2.26-2.21-2.27-1.33,0-2.26.95-2.27,2.28,0,.48.13.72,1.02.72h2.09Z"/>
  </g>
  <g>
    <path class="cls-6" d="M114.65,86.55c0,.89.16,1.88,1.26,1.89.45,0,1.82-.44,2.26-.44.68,0,1.23.48,1.23,1,0,.38-.24,1.09-.42,1.95-.25,1.2-.46,2.6-.53,3.97-.04.58-.11,1.23-1.17,1.6-1.27.44-3.15.6-4.49.6-4.96-.02-8.24-2.02-8.21-7.29,0-.89.3-4.72.3-5.47,0-1.13-.13-1.68-.64-1.68-.21,0-.72.1-.82.1-.27,0-.92-.17-.92-1.13,0-.68.15-1.81.15-2.81,0-.92-.13-1.81-.12-2.74,0-1.13,1-1.19,1.2-1.19.21,0,1.13.07,1.5.08,2.94.01,5.08-2.54,6.9-4.55.52-.55.89-.92,1.27-.92,1.3,0,1.33.79,1.33,1.17v3.05c-.02.89.08,1.44.9,1.44.27,0,1.44-.13,1.68-.13.89,0,1.33.52,1.33,1.31,0,.38-.11,2.05-.11,2.39,0,.45.09,2.47.09,2.88,0,.38-.04,1.44-1.24,1.43-.31,0-1.4-.21-1.71-.21-.96,0-1,.78-1,1.26v2.46Z"/>
    <path class="cls-6" d="M134.43,85.14c0-1.16.12-2.74-1.43-2.74-1.61,0-1.65,1.5-1.66,2.83l-.03,5.51c-.01,2.36.13,2.57.43,3.08.44.75.58.93.58,1.47,0,.48-.25,1.4-1.37,1.4-.65,0-2.63-.25-4.38-.26-1.61,0-3.25.22-4.59.22-1.23,0-1.36-1.07-1.36-1.44,0-.48.07-.61.59-1.43.38-.61.45-.99.46-3.08l.07-15.23c.01-2.4-.06-2.43-.43-3.05-.51-.82-.58-.96-.57-1.47,0-1.2.86-1.43,1.51-1.43,1.57,0,3.04.25,4.38.26,1.44,0,2.81-.23,3.73-.22,1.09,0,1.3.89,1.29,1.2,0,.27-.25,2.15-.25,2.63v1.74c-.01.41-.01,1.13.47,1.13.27,0,.82-.48,1.68-.92.86-.44,2.06-.88,3.46-.87,5.06.02,7.1,3.35,7.08,8.24l-.04,8.08c-.01,2.33.02,2.43.43,3.08.51.82.58.96.57,1.47,0,.38-.18,1.4-1.37,1.4-.86,0-2.91-.25-4.35-.26-1.13,0-2.29.23-3.42.22-1.54,0-1.54-1.03-1.52-3.39l.04-8.18Z"/>
    <path class="cls-6" d="M157.38,87.71c-.75,0-1.06,0-1.06.44,0,1.85,3,2.07,4.23,2.07,1.68,0,2.77-.09,4.86-.49.69-.13,1.78-.4,2.09-.4.68,0,.99.55.99.89,0,.27-.24,1.02-.56,2.02-.28.89-.45,2.08-.66,3.11-.14.72-.48,1.06-1.68,1.33-.99.24-3.77.67-6.57.66-7.49-.03-12.85-3.41-12.81-11.49.03-6.23,3.41-11.52,11.96-11.48,7.15.03,11.24,3.88,11.21,11.14,0,1.81-.45,2.26-1.69,2.25l-10.3-.05ZM159.25,83.92c1.13,0,1.37-.2,1.37-.75,0-1.37-.84-2.26-2.21-2.27-1.33,0-2.26.95-2.27,2.28,0,.48.13.72,1.02.72h2.09Z"/>
  </g>
</svg>
